Groote-Italic-Corsyf-18.ufo
<glyph name="ampersand" format="2">
  <advance width="1131"/>
  <unicode hex="0026"/>
  <outline>
    <contour>
      <point x="480" y="-95" type="curve" smooth="yes"/>
      <point x="676" y="-95"/>
      <point x="864" y="20"/>
      <point x="918" y="195" type="curve" smooth="yes"/>
      <point x="935" y="253"/>
      <point x="934" y="339"/>
      <point x="915" y="411" type="curve" smooth="yes"/>
      <point x="911" y="425"/>
      <point x="902" y="432"/>
      <point x="888" y="433" type="curve" smooth="yes"/>
      <point x="873" y="434" type="line" smooth="yes"/>
      <point x="854" y="436"/>
      <point x="856" y="425"/>
      <point x="862" y="407" type="curve" smooth="yes"/>
      <point x="887" y="330"/>
      <point x="894" y="238"/>
      <point x="874" y="171" type="curve" smooth="yes"/>
      <point x="834" y="40"/>
      <point x="707" y="-32"/>
      <point x="559" y="-32" type="curve" smooth="yes"/>
      <point x="320" y="-32"/>
      <point x="186" y="105"/>
      <point x="242" y="289" type="curve" smooth="yes"/>
      <point x="265" y="363"/>
      <point x="317" y="395"/>
      <point x="377" y="395" type="curve" smooth="yes"/>
      <point x="426" y="395"/>
      <point x="458" y="372"/>
      <point x="452" y="353" type="curve" smooth="yes"/>
      <point x="445" y="331"/>
      <point x="410" y="315"/>
      <point x="368" y="315" type="curve" smooth="yes"/>
      <point x="283" y="315"/>
      <point x="256" y="434"/>
      <point x="302" y="585" type="curve" smooth="yes"/>
      <point x="324" y="656"/>
      <point x="380" y="706"/>
      <point x="439" y="706" type="curve" smooth="yes"/>
      <point x="491" y="706"/>
      <point x="531" y="670"/>
      <point x="546" y="634" type="curve" smooth="yes"/>
      <point x="553" y="618"/>
      <point x="562" y="611"/>
      <point x="577" y="618" type="curve" smooth="yes"/>
      <point x="631" y="644" type="line" smooth="yes"/>
      <point x="645" y="651"/>
      <point x="652" y="659"/>
      <point x="650" y="673" type="curve" smooth="yes"/>
      <point x="642" y="725"/>
      <point x="599" y="759"/>
      <point x="542" y="759" type="curve" smooth="yes"/>
      <point x="391" y="759"/>
      <point x="267" y="668"/>
      <point x="228" y="540" type="curve" smooth="yes"/>
      <point x="180" y="383"/>
      <point x="224" y="272"/>
      <point x="335" y="272" type="curve" smooth="yes"/>
      <point x="409" y="272"/>
      <point x="489" y="325"/>
      <point x="509" y="389" type="curve" smooth="yes"/>
      <point x="520" y="425"/>
      <point x="492" y="450"/>
      <point x="440" y="450" type="curve" smooth="yes"/>
      <point x="332" y="450"/>
      <point x="201" y="347"/>
      <point x="161" y="215" type="curve" smooth="yes"/>
      <point x="104" y="28"/>
      <point x="236" y="-95"/>
    </contour>
    <contour>
      <point x="691" y="245" type="curve"/>
      <point x="715" y="272"/>
      <point x="736" y="276"/>
      <point x="758" y="301" type="curve" smooth="yes"/>
      <point x="771" y="316"/>
      <point x="766" y="328"/>
      <point x="745" y="331" type="curve" smooth="yes"/>
      <point x="673" y="342"/>
      <point x="631" y="384"/>
      <point x="637" y="405" type="curve" smooth="yes"/>
      <point x="645" y="433"/>
      <point x="678" y="453"/>
      <point x="714" y="453" type="curve" smooth="yes"/>
      <point x="747" y="453"/>
      <point x="928" y="386"/>
      <point x="970" y="386" type="curve" smooth="yes"/>
      <point x="1022" y="386"/>
      <point x="1102" y="463"/>
      <point x="1135" y="573" type="curve" smooth="yes"/>
      <point x="1162" y="660"/>
      <point x="1113" y="718"/>
      <point x="1024" y="725" type="curve" smooth="yes"/>
      <point x="1010" y="726"/>
      <point x="1003" y="721"/>
      <point x="992" y="713" type="curve" smooth="yes"/>
      <point x="927" y="666" type="line" smooth="yes"/>
      <point x="908" y="652"/>
      <point x="935" y="636"/>
      <point x="935" y="636" type="curve"/>
      <point x="1035" y="636"/>
      <point x="1092" y="579"/>
      <point x="1077" y="531" type="curve" smooth="yes"/>
      <point x="1063" y="484"/>
      <point x="1033" y="451"/>
      <point x="1005" y="451" type="curve" smooth="yes"/>
      <point x="983" y="451"/>
      <point x="857" y="501"/>
      <point x="823" y="501" type="curve" smooth="yes"/>
      <point x="723" y="501"/>
      <point x="613" y="475"/>
      <point x="585" y="381" type="curve" smooth="yes"/>
      <point x="564" y="315"/>
      <point x="610" y="260"/>
    </contour>
  </outline>
</glyph>
<glyph name="asterisk" format="2">
  <advance width="756"/>
  <unicode hex="002A"/>
  <outline>
    <contour>
      <point x="368" y="330" type="curve" smooth="yes"/>
      <point x="387" y="330" type="line"/>
      <point x="387" y="349"/>
      <point x="440" y="462"/>
      <point x="440" y="504" type="curve" smooth="yes"/>
      <point x="440" y="548"/>
      <point x="412" y="579"/>
      <point x="371" y="579" type="curve" smooth="yes"/>
      <point x="331" y="579"/>
      <point x="302" y="549"/>
      <point x="302" y="507" type="curve" smooth="yes"/>
      <point x="302" y="473"/>
      <point x="368" y="351"/>
    </contour>
    <contour>
      <point x="382" y="366" type="curve" smooth="yes"/>
      <point x="382" y="363"/>
      <point x="376" y="366"/>
      <point x="372" y="366" type="curve"/>
      <point x="372" y="390"/>
      <point x="330" y="479"/>
      <point x="330" y="503" type="curve" smooth="yes"/>
      <point x="330" y="541"/>
      <point x="353" y="552"/>
      <point x="369" y="552" type="curve" smooth="yes"/>
      <point x="389" y="552"/>
      <point x="413" y="541"/>
      <point x="413" y="504" type="curve" smooth="yes"/>
      <point x="413" y="468"/>
      <point x="382" y="390"/>
    </contour>
    <contour>
      <point x="431" y="313" type="curve" smooth="yes"/>
      <point x="444" y="300" type="line"/>
      <point x="458" y="314"/>
      <point x="575" y="356"/>
      <point x="605" y="386" type="curve"/>
      <point x="636" y="417"/>
      <point x="638" y="459"/>
      <point x="609" y="488" type="curve" smooth="yes"/>
      <point x="581" y="516"/>
      <point x="539" y="515"/>
      <point x="509" y="485" type="curve" smooth="yes"/>
      <point x="486" y="462"/>
      <point x="446" y="329"/>
    </contour>
    <contour>
      <point x="467" y="329" type="curve" smooth="yes"/>
      <point x="465" y="327"/>
      <point x="462" y="334"/>
      <point x="460" y="336" type="curve"/>
      <point x="476" y="353"/>
      <point x="509" y="446"/>
      <point x="527" y="463" type="curve" smooth="yes"/>
      <point x="553" y="489"/>
      <point x="577" y="481"/>
      <point x="588" y="470" type="curve" smooth="yes"/>
      <point x="603" y="456"/>
      <point x="612" y="431"/>
      <point x="586" y="405" type="curve" smooth="yes"/>
      <point x="560" y="380"/>
      <point x="483" y="346"/>
    </contour>
    <contour>
      <point x="461" y="254" type="curve" smooth="yes"/>
      <point x="461" y="235" type="line"/>
      <point x="480" y="235"/>
      <point x="593" y="182"/>
      <point x="635" y="182" type="curve" smooth="yes"/>
      <point x="679" y="182"/>
      <point x="710" y="210"/>
      <point x="710" y="251" type="curve" smooth="yes"/>
      <point x="710" y="291"/>
      <point x="680" y="320"/>
      <point x="638" y="320" type="curve" smooth="yes"/>
      <point x="604" y="320"/>
      <point x="482" y="254"/>
    </contour>
    <contour>
      <point x="497" y="240" type="curve" smooth="yes"/>
      <point x="494" y="240"/>
      <point x="497" y="246"/>
      <point x="497" y="250" type="curve"/>
      <point x="521" y="250"/>
      <point x="610" y="292"/>
      <point x="634" y="292" type="curve" smooth="yes"/>
      <point x="672" y="292"/>
      <point x="683" y="269"/>
      <point x="683" y="253" type="curve" smooth="yes"/>
      <point x="683" y="233"/>
      <point x="672" y="209"/>
      <point x="635" y="209" type="curve" smooth="yes"/>
      <point x="599" y="209"/>
      <point x="521" y="240"/>
    </contour>
    <contour>
      <point x="444" y="194" type="curve" smooth="yes"/>
      <point x="431" y="181" type="line"/>
      <point x="445" y="167"/>
      <point x="487" y="49"/>
      <point x="517" y="19" type="curve" smooth="yes"/>
      <point x="548" y="-12"/>
      <point x="590" y="-14"/>
      <point x="619" y="15" type="curve" smooth="yes"/>
      <point x="647" y="44"/>
      <point x="646" y="85"/>
      <point x="616" y="115" type="curve" smooth="yes"/>
      <point x="593" y="139"/>
      <point x="460" y="178"/>
    </contour>
    <contour>
      <point x="460" y="158" type="curve" smooth="yes"/>
      <point x="458" y="160"/>
      <point x="465" y="162"/>
      <point x="467" y="165" type="curve"/>
      <point x="484" y="148"/>
      <point x="577" y="115"/>
      <point x="594" y="98" type="curve" smooth="yes"/>
      <point x="620" y="71"/>
      <point x="612" y="47"/>
      <point x="601" y="36" type="curve" smooth="yes"/>
      <point x="587" y="22"/>
      <point x="562" y="13"/>
      <point x="536" y="39" type="curve" smooth="yes"/>
      <point x="511" y="64"/>
      <point x="477" y="141"/>
    </contour>
    <contour>
      <point x="388" y="163" type="curve" smooth="yes"/>
      <point x="370" y="163" type="line"/>
      <point x="370" y="143"/>
      <point x="316" y="31"/>
      <point x="316" y="-12" type="curve" smooth="yes"/>
      <point x="316" y="-56"/>
      <point x="345" y="-87"/>
      <point x="385" y="-87" type="curve" smooth="yes"/>
      <point x="426" y="-87"/>
      <point x="454" y="-57"/>
      <point x="454" y="-14" type="curve" smooth="yes"/>
      <point x="454" y="19"/>
      <point x="388" y="141"/>
    </contour>
    <contour>
      <point x="374" y="126" type="curve" smooth="yes"/>
      <point x="374" y="129"/>
      <point x="381" y="126"/>
      <point x="384" y="126" type="curve"/>
      <point x="384" y="103"/>
      <point x="426" y="14"/>
      <point x="426" y="-11" type="curve" smooth="yes"/>
      <point x="426" y="-48"/>
      <point x="403" y="-59"/>
      <point x="388" y="-59" type="curve" smooth="yes"/>
      <point x="367" y="-59"/>
      <point x="344" y="-49"/>
      <point x="344" y="-12" type="curve" smooth="yes"/>
      <point x="344" y="24"/>
      <point x="374" y="103"/>
    </contour>
    <contour>
      <point x="326" y="179" type="curve" smooth="yes"/>
      <point x="313" y="192" type="line"/>
      <point x="299" y="178"/>
      <point x="181" y="137"/>
      <point x="151" y="107" type="curve"/>
      <point x="120" y="75"/>
      <point x="118" y="33"/>
      <point x="147" y="5" type="curve" smooth="yes"/>
      <point x="176" y="-24"/>
      <point x="217" y="-23"/>
      <point x="247" y="7" type="curve" smooth="yes"/>
      <point x="271" y="31"/>
      <point x="310" y="164"/>
    </contour>
    <contour>
      <point x="290" y="163" type="curve" smooth="yes"/>
      <point x="292" y="165"/>
      <point x="294" y="159"/>
      <point x="297" y="156" type="curve"/>
      <point x="280" y="139"/>
      <point x="247" y="47"/>
      <point x="230" y="30" type="curve" smooth="yes"/>
      <point x="203" y="3"/>
      <point x="179" y="12"/>
      <point x="168" y="22" type="curve" smooth="yes"/>
      <point x="154" y="37"/>
      <point x="145" y="61"/>
      <point x="171" y="87" type="curve" smooth="yes"/>
      <point x="196" y="113"/>
      <point x="273" y="147"/>
    </contour>
    <contour>
      <point x="296" y="239" type="curve" smooth="yes"/>
      <point x="296" y="257" type="line"/>
      <point x="276" y="257"/>
      <point x="164" y="311"/>
      <point x="121" y="311" type="curve" smooth="yes"/>
      <point x="77" y="311"/>
      <point x="46" y="282"/>
      <point x="46" y="242" type="curve" smooth="yes"/>
      <point x="46" y="201"/>
      <point x="76" y="173"/>
      <point x="119" y="173" type="curve" smooth="yes"/>
      <point x="152" y="173"/>
      <point x="274" y="239"/>
    </contour>
    <contour>
      <point x="259" y="253" type="curve" smooth="yes"/>
      <point x="262" y="253"/>
      <point x="259" y="246"/>
      <point x="259" y="243" type="curve"/>
      <point x="236" y="243"/>
      <point x="147" y="201"/>
      <point x="122" y="201" type="curve" smooth="yes"/>
      <point x="85" y="201"/>
      <point x="74" y="224"/>
      <point x="74" y="239" type="curve" smooth="yes"/>
      <point x="74" y="260"/>
      <point x="84" y="283"/>
      <point x="121" y="283" type="curve" smooth="yes"/>
      <point x="157" y="283"/>
      <point x="236" y="253"/>
    </contour>
    <contour>
      <point x="312" y="299" type="curve" smooth="yes"/>
      <point x="325" y="312" type="line"/>
      <point x="311" y="326"/>
      <point x="270" y="443"/>
      <point x="240" y="473" type="curve" smooth="yes"/>
      <point x="208" y="504"/>
      <point x="166" y="506"/>
      <point x="138" y="477" type="curve" smooth="yes"/>
      <point x="109" y="449"/>
      <point x="110" y="407"/>
      <point x="140" y="377" type="curve" smooth="yes"/>
      <point x="164" y="354"/>
      <point x="297" y="314"/>
    </contour>
    <contour>
      <point x="296" y="335" type="curve" smooth="yes"/>
      <point x="298" y="333"/>
      <point x="292" y="330"/>
      <point x="289" y="328" type="curve"/>
      <point x="272" y="344"/>
      <point x="180" y="377"/>
      <point x="163" y="395" type="curve" smooth="yes"/>
      <point x="136" y="421"/>
      <point x="145" y="445"/>
      <point x="155" y="456" type="curve" smooth="yes"/>
      <point x="170" y="471"/>
      <point x="194" y="480"/>
      <point x="220" y="454" type="curve" smooth="yes"/>
      <point x="246" y="428"/>
      <point x="280" y="351"/>
    </contour>
  </outline>
</glyph>
<glyph name="comma" format="2">
  <advance width="327"/>
  <unicode hex="002C"/>
  <outline>
    <contour>
      <point x="32" y="-187" type="curve"/>
      <point x="42" y="-208" type="line"/>
      <point x="122" y="-152"/>
      <point x="189" y="-70"/>
      <point x="203" y="-11" type="curve" smooth="yes"/>
      <point x="224" y="83"/>
      <point x="196" y="149"/>
      <point x="132" y="149" type="curve" smooth="yes"/>
      <point x="98" y="149"/>
      <point x="68" y="127"/>
      <point x="61" y="95" type="curve" smooth="yes"/>
      <point x="53" y="57"/>
      <point x="67" y="30"/>
      <point x="95" y="30" type="curve" smooth="yes"/>
      <point x="139" y="30"/>
      <point x="162" y="-7"/>
      <point x="150" y="-59" type="curve" smooth="yes"/>
      <point x="143" y="-88"/>
      <point x="94" y="-142"/>
    </contour>
  </outline>
</glyph>
<glyph name="hyphen" format="2">
  <advance width="378"/>
  <unicode hex="002D"/>
  <outline>
    <contour>
      <point x="50" y="223" type="line"/>
      <point x="314" y="223" type="line"/>
      <point x="341" y="285" type="line"/>
      <point x="77" y="285" type="line"/>
    </contour>
  </outline>
</glyph>
<glyph name="colon" format="2">
  <advance width="286"/>
  <unicode hex="003A"/>
  <outline>
    <contour>
      <point x="164" y="348" type="curve"/>
      <point x="199" y="340"/>
      <point x="239" y="357"/>
      <point x="252" y="387" type="curve" smooth="yes"/>
      <point x="265" y="415"/>
      <point x="245" y="445"/>
      <point x="209" y="453" type="curve" smooth="yes"/>
      <point x="173" y="461"/>
      <point x="133" y="444"/>
      <point x="121" y="415" type="curve" smooth="yes"/>
      <point x="108" y="386"/>
      <point x="127" y="356"/>
    </contour>
    <contour>
      <point x="76" y="8" type="curve"/>
      <point x="111" y="0"/>
      <point x="151" y="17"/>
      <point x="164" y="47" type="curve" smooth="yes"/>
      <point x="176" y="75"/>
      <point x="156" y="105"/>
      <point x="121" y="113" type="curve" smooth="yes"/>
      <point x="85" y="121"/>
      <point x="45" y="104"/>
      <point x="32" y="75" type="curve" smooth="yes"/>
      <point x="19" y="46"/>
      <point x="38" y="16"/>
    </contour>
  </outline>
</glyph>
<glyph name="semicolon" format="2">
  <advance width="356"/>
  <unicode hex="003B"/>
  <outline>
    <contour>
      <point x="1" y="-109" type="curve"/>
      <point x="2" y="-132" type="line"/>
      <point x="87" y="-103"/>
      <point x="159" y="-45"/>
      <point x="190" y="7" type="curve" smooth="yes"/>
      <point x="238" y="90"/>
      <point x="236" y="162"/>
      <point x="184" y="183" type="curve" smooth="yes"/>
      <point x="156" y="193"/>
      <point x="126" y="181"/>
      <point x="109" y="152" type="curve" smooth="yes"/>
      <point x="89" y="119"/>
      <point x="92" y="89"/>
      <point x="116" y="80" type="curve" smooth="yes"/>
      <point x="151" y="66"/>
      <point x="167" y="23"/>
      <point x="140" y="-23" type="curve" smooth="yes"/>
      <point x="124" y="-49"/>
      <point x="66" y="-85"/>
    </contour>
    <contour>
      <point x="184" y="348" type="curve"/>
      <point x="219" y="340"/>
      <point x="259" y="357"/>
      <point x="272" y="387" type="curve" smooth="yes"/>
      <point x="285" y="415"/>
      <point x="265" y="445"/>
      <point x="229" y="453" type="curve" smooth="yes"/>
      <point x="193" y="461"/>
      <point x="153" y="444"/>
      <point x="141" y="415" type="curve" smooth="yes"/>
      <point x="128" y="386"/>
      <point x="147" y="356"/>
    </contour>
  </outline>
</glyph>
<glyph name="A" format="2">
  <advance width="678"/>
  <unicode hex="0041"/>
  <anchor x="273" y="0" name="bottom"/>
  <anchor x="554" y="10" name="ogonek"/>
  <anchor x="417" y="635" name="top"/>
  <outline>
    <contour>
      <point x="336" y="-2" type="line"/>
      <point x="603" y="0" type="line"/>
      <point x="609" y="28" type="line"/>
      <point x="589" y="28" type="line"/>
      <point x="561" y="28"/>
      <point x="532" y="72"/>
      <point x="528" y="134" type="curve" smooth="yes"/>
      <point x="489" y="679" type="line"/>
      <point x="489" y="719" type="line"/>
      <point x="477" y="728" type="line"/>
      <point x="456" y="716"/>
      <point x="425" y="704"/>
      <point x="389" y="700" type="curve"/>
      <point x="381" y="666" type="line"/>
      <point x="406" y="659" type="line"/>
      <point x="426" y="388"/>
      <point x="442" y="152"/>
      <point x="445" y="89" type="curve" smooth="yes"/>
      <point x="446" y="52"/>
      <point x="425" y="26"/>
      <point x="396" y="26" type="curve" smooth="yes"/>
      <point x="343" y="26" type="line"/>
    </contour>
    <contour>
      <point x="-45" y="1" type="line"/>
      <point x="209" y="1" type="line"/>
      <point x="215" y="28" type="line"/>
      <point x="209" y="28"/>
      <point x="213" y="29"/>
      <point x="198" y="29" type="curve" smooth="yes"/>
      <point x="153" y="29"/>
      <point x="134" y="59"/>
      <point x="151" y="101" type="curve"/>
      <point x="419" y="660" type="line"/>
      <point x="388" y="686" type="line"/>
      <point x="282" y="480"/>
      <point x="165" y="240"/>
      <point x="106" y="105" type="curve" smooth="yes"/>
      <point x="86" y="60"/>
      <point x="47" y="29"/>
      <point x="10" y="29" type="curve" smooth="yes"/>
      <point x="-39" y="29" type="line"/>
    </contour>
    <contour>
      <point x="221" y="288" type="line"/>
      <point x="486" y="288" type="line"/>
      <point x="497" y="338" type="line"/>
      <point x="232" y="338" type="line"/>
    </contour>
  </outline>
</glyph>
<glyph name="B" format="2">
  <advance width="602"/>
  <unicode hex="0042"/>
  <outline>
    <contour>
      <point x="-12" y="0" type="line"/>
      <point x="23" y="0"/>
      <point x="54" y="2"/>
      <point x="97" y="2" type="curve" smooth="yes"/>
      <point x="141" y="2"/>
      <point x="247" y="0"/>
      <point x="291" y="0" type="curve" smooth="yes"/>
      <point x="407" y="0"/>
      <point x="507" y="78"/>
      <point x="532" y="188" type="curve" smooth="yes"/>
      <point x="558" y="299"/>
      <point x="478" y="377"/>
      <point x="341" y="377" type="curve" smooth="yes"/>
      <point x="211" y="377" type="line"/>
      <point x="201" y="336" type="line"/>
      <point x="244" y="336"/>
      <point x="295" y="336"/>
      <point x="331" y="336" type="curve" smooth="yes"/>
      <point x="404" y="336"/>
      <point x="442" y="273"/>
      <point x="421" y="185" type="curve" smooth="yes"/>
      <point x="400" y="95"/>
      <point x="338" y="31"/>
      <point x="272" y="31" type="curve" smooth="yes"/>
      <point x="209" y="31"/>
      <point x="168" y="57"/>
      <point x="177" y="94" type="curve" smooth="yes"/>
      <point x="309" y="669" type="line"/>
      <point x="334" y="669"/>
      <point x="373" y="669"/>
      <point x="400" y="669" type="curve" smooth="yes"/>
      <point x="462" y="669"/>
      <point x="493" y="609"/>
      <point x="473" y="523" type="curve" smooth="yes"/>
      <point x="453" y="437"/>
      <point x="382" y="377"/>
      <point x="301" y="377" type="curve"/>
      <point x="294" y="344" type="line"/>
      <point x="433" y="344"/>
      <point x="551" y="426"/>
      <point x="577" y="541" type="curve" smooth="yes"/>
      <point x="598" y="629"/>
      <point x="529" y="694"/>
      <point x="412" y="699" type="curve" smooth="yes"/>
      <point x="415" y="698"/>
      <point x="356" y="698"/>
      <point x="271" y="698" type="curve" smooth="yes"/>
      <point x="247" y="698"/>
      <point x="157" y="700"/>
      <point x="142" y="700" type="curve"/>
      <point x="136" y="672" type="line"/>
      <point x="143" y="672"/>
      <point x="149" y="672"/>
      <point x="158" y="672" type="curve" smooth="yes"/>
      <point x="197" y="672"/>
      <point x="219" y="647"/>
      <point x="211" y="611" type="curve" smooth="yes"/>
      <point x="200" y="562"/>
      <point x="94" y="104"/>
      <point x="86" y="71" type="curve" smooth="yes"/>
      <point x="81" y="46"/>
      <point x="55" y="28"/>
      <point x="25" y="28" type="curve" smooth="yes"/>
      <point x="-6" y="28" type="line"/>
    </contour>
  </outline>
</glyph>
<glyph name="C" format="2">
  <advance width="682"/>
  <unicode hex="0043"/>
  <outline>
    <contour>
      <point x="327" y="-8" type="curve" smooth="yes"/>
      <point x="426" y="-8"/>
      <point x="535" y="44"/>
      <point x="602" y="118" type="curve"/>
      <point x="635" y="249" type="line"/>
      <point x="616" y="251" type="line"/>
      <point x="575" y="124"/>
      <point x="468" y="34"/>
      <point x="356" y="34" type="curve" smooth="yes"/>
      <point x="215" y="34"/>
      <point x="144" y="192"/>
      <point x="195" y="415" type="curve" smooth="yes"/>
      <point x="232" y="574"/>
      <point x="349" y="687"/>
      <point x="465" y="687" type="curve" smooth="yes"/>
      <point x="573" y="687"/>
      <point x="649" y="624"/>
      <point x="648" y="536" type="curve"/>
      <point x="669" y="536" type="line"/>
      <point x="700" y="707" type="line"/>
      <point x="677" y="707" type="line"/>
      <point x="668" y="689"/>
      <point x="656" y="677"/>
      <point x="648" y="677" type="curve"/>
      <point x="616" y="705"/>
      <point x="537" y="725"/>
      <point x="473" y="725" type="curve" smooth="yes"/>
      <point x="283" y="725"/>
      <point x="125" y="573"/>
      <point x="75" y="359" type="curve" smooth="yes"/>
      <point x="26" y="144"/>
      <point x="136" y="-8"/>
    </contour>
  </outline>
</glyph>
<glyph name="D" format="2">
  <advance width="720"/>
  <unicode hex="0044"/>
  <outline>
    <contour>
      <point x="-19" y="-3" type="line"/>
      <point x="34" y="-1"/>
      <point x="100" y="0"/>
      <point x="138" y="0" type="curve" smooth="yes"/>
      <point x="187" y="0"/>
      <point x="248" y="-3"/>
      <point x="305" y="-3" type="curve" smooth="yes"/>
      <point x="495" y="-3"/>
      <point x="668" y="160"/>
      <point x="721" y="390" type="curve" smooth="yes"/>
      <point x="763" y="573"/>
      <point x="670" y="702"/>
      <point x="495" y="702" type="curve" smooth="yes"/>
      <point x="442" y="702"/>
      <point x="321" y="700"/>
      <point x="295" y="700" type="curve" smooth="yes"/>
      <point x="270" y="700"/>
      <point x="226" y="702"/>
      <point x="214" y="702" type="curve" smooth="yes"/>
      <point x="152" y="702" type="line"/>
      <point x="145" y="672" type="line"/>
      <point x="156" y="672"/>
      <point x="156" y="672"/>
      <point x="179" y="672" type="curve" smooth="yes"/>
      <point x="223" y="672"/>
      <point x="246" y="636"/>
      <point x="234" y="586" type="curve" smooth="yes"/>
      <point x="219" y="519"/>
      <point x="137" y="163"/>
      <point x="129" y="132" type="curve" smooth="yes"/>
      <point x="115" y="71"/>
      <point x="69" y="27"/>
      <point x="18" y="27" type="curve" smooth="yes"/>
      <point x="-12" y="27" type="line"/>
    </contour>
    <contour>
      <point x="319" y="32" type="curve" smooth="yes"/>
      <point x="245" y="32"/>
      <point x="198" y="63"/>
      <point x="209" y="107" type="curve" smooth="yes"/>
      <point x="338" y="666" type="line"/>
      <point x="376" y="666"/>
      <point x="429" y="666"/>
      <point x="459" y="666" type="curve" smooth="yes"/>
      <point x="581" y="666"/>
      <point x="648" y="546"/>
      <point x="607" y="368" type="curve" smooth="yes"/>
      <point x="561" y="168"/>
      <point x="437" y="32"/>
    </contour>
  </outline>
</glyph>
<glyph name="E" format="2">
  <advance width="575"/>
  <unicode hex="0045"/>
  <outline>
    <contour>
      <point x="218" y="-1" type="curve" smooth="yes"/>
      <point x="428" y="-1" type="line"/>
      <point x="528" y="143" type="line"/>
      <point x="510" y="158" type="line"/>
      <point x="454" y="82"/>
      <point x="388" y="34"/>
      <point x="350" y="34" type="curve" smooth="yes"/>
      <point x="333" y="34"/>
      <point x="207" y="34"/>
      <point x="185" y="34" type="curve" smooth="yes"/>
      <point x="161" y="34"/>
      <point x="151" y="56"/>
      <point x="158" y="88" type="curve" smooth="yes"/>
      <point x="185" y="202"/>
      <point x="276" y="599"/>
      <point x="281" y="620" type="curve" smooth="yes"/>
      <point x="287" y="646"/>
      <point x="315" y="665"/>
      <point x="351" y="665" type="curve" smooth="yes"/>
      <point x="368" y="665"/>
      <point x="457" y="665"/>
      <point x="468" y="665" type="curve" smooth="yes"/>
      <point x="520" y="665"/>
      <point x="548" y="625"/>
      <point x="534" y="561" type="curve"/>
      <point x="557" y="561" type="line"/>
      <point x="589" y="700" type="line"/>
      <point x="518" y="700"/>
      <point x="393" y="700"/>
      <point x="376" y="700" type="curve" smooth="yes"/>
      <point x="359" y="700"/>
      <point x="278" y="697"/>
      <point x="266" y="697" type="curve" smooth="yes"/>
      <point x="253" y="697"/>
      <point x="171" y="700"/>
      <point x="152" y="700" type="curve"/>
      <point x="144" y="667" type="line"/>
      <point x="182" y="667"/>
      <point x="201" y="643"/>
      <point x="194" y="609" type="curve" smooth="yes"/>
      <point x="188" y="585"/>
      <point x="95" y="181"/>
      <point x="85" y="137" type="curve" smooth="yes"/>
      <point x="70" y="76"/>
      <point x="44" y="33"/>
      <point x="17" y="33" type="curve" smooth="yes"/>
      <point x="-13" y="33" type="line"/>
      <point x="-20" y="0" type="line"/>
      <point x="6" y="0"/>
      <point x="58" y="0"/>
      <point x="95" y="0" type="curve" smooth="yes"/>
      <point x="133" y="0"/>
      <point x="187" y="-1"/>
    </contour>
    <contour>
      <point x="406" y="260" type="curve"/>
      <point x="429" y="260" type="line"/>
      <point x="441" y="327"/>
      <point x="457" y="395"/>
      <point x="476" y="462" type="curve"/>
      <point x="452" y="462" type="line"/>
      <point x="438" y="403"/>
      <point x="411" y="374"/>
      <point x="378" y="374" type="curve" smooth="yes"/>
      <point x="200" y="374" type="line"/>
      <point x="193" y="344" type="line"/>
      <point x="246" y="344"/>
      <point x="350" y="344"/>
      <point x="371" y="344" type="curve" smooth="yes"/>
      <point x="405" y="344"/>
      <point x="414" y="295"/>
    </contour>
  </outline>
</glyph>
<glyph name="F" format="2">
  <advance width="506"/>
  <unicode hex="0046"/>
  <outline>
    <contour>
      <point x="217" y="-1" type="curve"/>
      <point x="223" y="27" type="line"/>
      <point x="205" y="27"/>
      <point x="190" y="27"/>
      <point x="183" y="27" type="curve" smooth="yes"/>
      <point x="159" y="27"/>
      <point x="149" y="49"/>
      <point x="157" y="81" type="curve" smooth="yes"/>
      <point x="183" y="195"/>
      <point x="276" y="599"/>
      <point x="281" y="620" type="curve" smooth="yes"/>
      <point x="287" y="646"/>
      <point x="315" y="665"/>
      <point x="351" y="665" type="curve" smooth="yes"/>
      <point x="368" y="665"/>
      <point x="457" y="665"/>
      <point x="468" y="665" type="curve" smooth="yes"/>
      <point x="520" y="665"/>
      <point x="540" y="625"/>
      <point x="534" y="561" type="curve"/>
      <point x="557" y="561" type="line"/>
      <point x="581" y="700" type="line"/>
      <point x="510" y="700"/>
      <point x="393" y="700"/>
      <point x="376" y="700" type="curve" smooth="yes"/>
      <point x="359" y="700"/>
      <point x="278" y="697"/>
      <point x="266" y="697" type="curve" smooth="yes"/>
      <point x="253" y="697"/>
      <point x="171" y="700"/>
      <point x="152" y="700" type="curve"/>
      <point x="144" y="667" type="line"/>
      <point x="182" y="667"/>
      <point x="201" y="643"/>
      <point x="194" y="609" type="curve" smooth="yes"/>
      <point x="188" y="585"/>
      <point x="95" y="181"/>
      <point x="85" y="137" type="curve" smooth="yes"/>
      <point x="69" y="69"/>
      <point x="42" y="26"/>
      <point x="16" y="26" type="curve" smooth="yes"/>
      <point x="-14" y="26" type="line"/>
      <point x="-20" y="0" type="line"/>
      <point x="6" y="0"/>
      <point x="58" y="0"/>
      <point x="95" y="0" type="curve" smooth="yes"/>
      <point x="132" y="0"/>
      <point x="185" y="-1"/>
    </contour>
    <contour>
      <point x="385" y="240" type="curve"/>
      <point x="408" y="240" type="line"/>
      <point x="420" y="307"/>
      <point x="445" y="415"/>
      <point x="463" y="482" type="curve"/>
      <point x="440" y="482" type="line"/>
      <point x="426" y="423"/>
      <point x="394" y="374"/>
      <point x="361" y="374" type="curve" smooth="yes"/>
      <point x="200" y="374" type="line"/>
      <point x="193" y="344" type="line"/>
      <point x="246" y="344"/>
      <point x="333" y="344"/>
      <point x="354" y="344" type="curve" smooth="yes"/>
      <point x="388" y="344"/>
      <point x="393" y="275"/>
    </contour>
  </outline>
</glyph>
<glyph name="G" format="2">
  <advance width="714"/>
  <unicode hex="0047"/>
  <outline>
    <contour>
      <point x="336" y="-20" type="curve" smooth="yes"/>
      <point x="402" y="-20"/>
      <point x="507" y="13"/>
      <point x="588" y="59" type="curve"/>
      <point x="591" y="73" type="line"/>
      <point x="583" y="79"/>
      <point x="579" y="89"/>
      <point x="580" y="96" type="curve" smooth="yes"/>
      <point x="583" y="109"/>
      <point x="604" y="199"/>
      <point x="609" y="222" type="curve" smooth="yes"/>
      <point x="616" y="252"/>
      <point x="638" y="274"/>
      <point x="661" y="274" type="curve" smooth="yes"/>
      <point x="681" y="274" type="line"/>
      <point x="689" y="309" type="line"/>
      <point x="421" y="309" type="line"/>
      <point x="413" y="273" type="line"/>
      <point x="433" y="273"/>
      <point x="493" y="273"/>
      <point x="498" y="273" type="curve" smooth="yes"/>
      <point x="519" y="273"/>
      <point x="526" y="234"/>
      <point x="513" y="180" type="curve" smooth="yes"/>
      <point x="490" y="80"/>
      <point x="418" y="10"/>
      <point x="351" y="10" type="curve" smooth="yes"/>
      <point x="218" y="10"/>
      <point x="140" y="150"/>
      <point x="185" y="347" type="curve" smooth="yes"/>
      <point x="230" y="540"/>
      <point x="364" y="676"/>
      <point x="510" y="676" type="curve" smooth="yes"/>
      <point x="602" y="676"/>
      <point x="667" y="606"/>
      <point x="668" y="507" type="curve"/>
      <point x="685" y="507" type="line"/>
      <point x="729" y="694" type="line"/>
      <point x="671" y="694"/>
      <point x="581" y="712"/>
      <point x="503" y="712" type="curve" smooth="yes"/>
      <point x="299" y="712"/>
      <point x="120" y="561"/>
      <point x="71" y="348" type="curve" smooth="yes"/>
      <point x="21" y="132"/>
      <point x="131" y="-20"/>
    </contour>
  </outline>
</glyph>
<glyph name="H" format="2">
  <advance width="771"/>
  <unicode hex="0048"/>
  <outline>
    <contour>
      <point x="397" y="0" type="line"/>
      <point x="681" y="0" type="line"/>
      <point x="688" y="28" type="line"/>
      <point x="683" y="28"/>
      <point x="678" y="28"/>
      <point x="672" y="28" type="curve" smooth="yes"/>
      <point x="630" y="28"/>
      <point x="597" y="63"/>
      <point x="609" y="112" type="curve" smooth="yes"/>
      <point x="614" y="137"/>
      <point x="717" y="581"/>
      <point x="722" y="605" type="curve" smooth="yes"/>
      <point x="731" y="644"/>
      <point x="767" y="672"/>
      <point x="791" y="672" type="curve" smooth="yes"/>
      <point x="815" y="672" type="line"/>
      <point x="822" y="700" type="line"/>
      <point x="562" y="700" type="line"/>
      <point x="556" y="672" type="line"/>
      <point x="565" y="672"/>
      <point x="573" y="672"/>
      <point x="584" y="672" type="curve" smooth="yes"/>
      <point x="618" y="672"/>
      <point x="648" y="652"/>
      <point x="642" y="624" type="curve" smooth="yes"/>
      <point x="637" y="601"/>
      <point x="531" y="146"/>
      <point x="527" y="125" type="curve" smooth="yes"/>
      <point x="513" y="68"/>
      <point x="470" y="28"/>
      <point x="438" y="28" type="curve" smooth="yes"/>
      <point x="404" y="28" type="line"/>
    </contour>
    <contour>
      <point x="-21" y="0" type="line"/>
      <point x="254" y="0" type="line"/>
      <point x="260" y="28" type="line"/>
      <point x="254" y="28"/>
      <point x="254" y="28"/>
      <point x="242" y="28" type="curve" smooth="yes"/>
      <point x="199" y="28"/>
      <point x="165" y="61"/>
      <point x="176" y="108" type="curve" smooth="yes"/>
      <point x="183" y="138"/>
      <point x="287" y="591"/>
      <point x="292" y="612" type="curve" smooth="yes"/>
      <point x="300" y="647"/>
      <point x="330" y="672"/>
      <point x="349" y="672" type="curve" smooth="yes"/>
      <point x="391" y="672" type="line"/>
      <point x="398" y="700" type="line"/>
      <point x="152" y="700" type="line"/>
      <point x="145" y="672" type="line"/>
      <point x="152" y="672"/>
      <point x="158" y="672"/>
      <point x="167" y="672" type="curve" smooth="yes"/>
      <point x="190" y="672"/>
      <point x="220" y="669"/>
      <point x="216" y="649" type="curve" smooth="yes"/>
      <point x="203" y="595"/>
      <point x="104" y="164"/>
      <point x="96" y="132" type="curve" smooth="yes"/>
      <point x="82" y="71"/>
      <point x="41" y="28"/>
      <point x="19" y="28" type="curve" smooth="yes"/>
      <point x="-14" y="28" type="line"/>
    </contour>
    <contour>
      <point x="222" y="345" type="line"/>
      <point x="616" y="345" type="line"/>
      <point x="624" y="380" type="line"/>
      <point x="230" y="380" type="line"/>
    </contour>
  </outline>
</glyph>
<glyph name="I" format="2">
  <advance width="315"/>
  <unicode hex="0049"/>
  <outline>
    <contour>
      <point x="-8" y="0" type="line"/>
      <point x="215" y="0" type="line"/>
      <point x="222" y="28" type="line"/>
      <point x="216" y="28"/>
      <point x="207" y="28"/>
      <point x="195" y="28" type="curve" smooth="yes"/>
      <point x="177" y="28"/>
      <point x="169" y="61"/>
      <point x="180" y="108" type="curve" smooth="yes"/>
      <point x="187" y="138"/>
      <point x="291" y="591"/>
      <point x="296" y="612" type="curve" smooth="yes"/>
      <point x="304" y="647"/>
      <point x="329" y="672"/>
      <point x="353" y="672" type="curve" smooth="yes"/>
      <point x="389" y="672" type="line"/>
      <point x="396" y="700" type="line"/>
      <point x="152" y="700" type="line"/>
      <point x="145" y="672" type="line"/>
      <point x="152" y="672"/>
      <point x="158" y="672"/>
      <point x="166" y="672" type="curve" smooth="yes"/>
      <point x="200" y="672"/>
      <point x="223" y="662"/>
      <point x="220" y="649" type="curve" smooth="yes"/>
      <point x="207" y="595"/>
      <point x="108" y="164"/>
      <point x="100" y="132" type="curve" smooth="yes"/>
      <point x="86" y="71"/>
      <point x="49" y="28"/>
      <point x="14" y="28" type="curve" smooth="yes"/>
      <point x="-2" y="28" type="line"/>
    </contour>
  </outline>
</glyph>
<glyph name="J" format="2">
  <advance width="308"/>
  <unicode hex="004A"/>
  <outline>
    <contour>
      <point x="-114" y="-373" type="curve" smooth="yes"/>
      <point x="-23" y="-373"/>
      <point x="58" y="-294"/>
      <point x="84" y="-183" type="curve" smooth="yes"/>
      <point x="105" y="-92"/>
      <point x="258" y="570"/>
      <point x="267" y="611" type="curve" smooth="yes"/>
      <point x="276" y="649"/>
      <point x="314" y="674"/>
      <point x="358" y="672" type="curve" smooth="yes"/>
      <point x="383" y="671" type="line"/>
      <point x="390" y="700" type="line"/>
      <point x="127" y="700" type="line"/>
      <point x="120" y="671" type="line"/>
      <point x="128" y="671"/>
      <point x="134" y="672"/>
      <point x="143" y="672" type="curve" smooth="yes"/>
      <point x="174" y="672"/>
      <point x="192" y="654"/>
      <point x="186" y="628" type="curve" smooth="yes"/>
      <point x="177" y="591"/>
      <point x="-9" y="-217"/>
      <point x="-18" y="-254" type="curve" smooth="yes"/>
      <point x="-30" y="-306"/>
      <point x="-65" y="-342"/>
      <point x="-103" y="-342" type="curve" smooth="yes"/>
      <point x="-145" y="-342"/>
      <point x="-170" y="-320"/>
      <point x="-162" y="-288" type="curve" smooth="yes"/>
      <point x="-156" y="-262"/>
      <point x="-143" y="-256"/>
      <point x="-139" y="-239" type="curve" smooth="yes"/>
      <point x="-136" y="-227"/>
      <point x="-149" y="-219"/>
      <point x="-169" y="-219" type="curve" smooth="yes"/>
      <point x="-193" y="-219"/>
      <point x="-216" y="-249"/>
      <point x="-226" y="-292" type="curve" smooth="yes"/>
      <point x="-237" y="-339"/>
      <point x="-191" y="-373"/>
    </contour>
  </outline>
</glyph>
<glyph name="K" format="2">
  <advance width="642"/>
  <unicode hex="004B"/>
  <outline>
    <contour>
      <point x="442" y="0" type="curve" smooth="yes"/>
      <point x="570" y="0" type="line"/>
      <point x="577" y="28" type="line"/>
      <point x="571" y="28" type="line" smooth="yes"/>
      <point x="547" y="28"/>
      <point x="520" y="45"/>
      <point x="494" y="87" type="curve" smooth="yes"/>
      <point x="303" y="398" type="line"/>
      <point x="390" y="477"/>
      <point x="482" y="568"/>
      <point x="502" y="589" type="curve" smooth="yes"/>
      <point x="533" y="621"/>
      <point x="601" y="659"/>
      <point x="622" y="659" type="curve" smooth="yes"/>
      <point x="662" y="659" type="line"/>
      <point x="670" y="696" type="line"/>
      <point x="445" y="696" type="line"/>
      <point x="437" y="660" type="line"/>
      <point x="461" y="660" type="line" smooth="yes"/>
      <point x="468" y="660"/>
      <point x="496" y="631"/>
      <point x="458" y="589" type="curve"/>
      <point x="217" y="358" type="line"/>
      <point x="242" y="468"/>
      <point x="269" y="575"/>
      <point x="273" y="594" type="curve" smooth="yes"/>
      <point x="284" y="640"/>
      <point x="309" y="672"/>
      <point x="331" y="672" type="curve" smooth="yes"/>
      <point x="360" y="672" type="line"/>
      <point x="366" y="700" type="line"/>
      <point x="152" y="700" type="line"/>
      <point x="146" y="672" type="line"/>
      <point x="169" y="672" type="line" smooth="yes"/>
      <point x="189" y="672"/>
      <point x="201" y="655"/>
      <point x="195" y="630" type="curve" smooth="yes"/>
      <point x="69" y="83" type="line" smooth="yes"/>
      <point x="62" y="51"/>
      <point x="41" y="28"/>
      <point x="23" y="28" type="curve" smooth="yes"/>
      <point x="10" y="28" type="line"/>
      <point x="3" y="0" type="line"/>
      <point x="217" y="0" type="line"/>
      <point x="224" y="28" type="line"/>
      <point x="198" y="28" type="line" smooth="yes"/>
      <point x="165" y="28"/>
      <point x="148" y="52"/>
      <point x="156" y="87" type="curve" smooth="yes"/>
      <point x="208" y="318" type="line"/>
      <point x="224" y="333" type="line"/>
      <point x="399" y="36" type="line" smooth="yes"/>
      <point x="411" y="15"/>
      <point x="428" y="0"/>
    </contour>
  </outline>
</glyph>
<glyph name="L" format="2">
  <advance width="627"/>
  <unicode hex="004C"/>
  <outline>
    <contour>
      <point x="0" y="35" type="curve"/>
      <point x="-8" y="0" type="line"/>
      <point x="492" y="0" type="line"/>
      <point x="587" y="162" type="line"/>
      <point x="562" y="169" type="line"/>
      <point x="518" y="91"/>
      <point x="451" y="35"/>
      <point x="400" y="35" type="curve" smooth="yes"/>
      <point x="341" y="35"/>
      <point x="261" y="35"/>
      <point x="242" y="35" type="curve" smooth="yes"/>
      <point x="208" y="35"/>
      <point x="188" y="74"/>
      <point x="201" y="130" type="curve" smooth="yes"/>
      <point x="212" y="179"/>
      <point x="300" y="558"/>
      <point x="311" y="608" type="curve" smooth="yes"/>
      <point x="320" y="645"/>
      <point x="371" y="672"/>
      <point x="430" y="672" type="curve" smooth="yes"/>
      <point x="447" y="672" type="line"/>
      <point x="453" y="700" type="line"/>
      <point x="152" y="700" type="line"/>
      <point x="145" y="672" type="line"/>
      <point x="167" y="672" type="line"/>
      <point x="209" y="672"/>
      <point x="233" y="636"/>
      <point x="221" y="584" type="curve" smooth="yes"/>
      <point x="209" y="533"/>
      <point x="124" y="166"/>
      <point x="115" y="125" type="curve" smooth="yes"/>
      <point x="103" y="72"/>
      <point x="75" y="35"/>
      <point x="53" y="35" type="curve" smooth="yes"/>
      <point x="38" y="35"/>
      <point x="12" y="35"/>
    </contour>
  </outline>
</glyph>
<glyph name="M" format="2">
  <advance width="844"/>
  <unicode hex="004D"/>
  <outline>
    <contour>
      <point x="266" y="538" type="curve" smooth="yes"/>
      <point x="328" y="0" type="line"/>
      <point x="347" y="0" type="line"/>
      <point x="741" y="640" type="line"/>
      <point x="740" y="700" type="line"/>
      <point x="402" y="150" type="line"/>
      <point x="339" y="700" type="line"/>
      <point x="152" y="700" type="line"/>
      <point x="142" y="659" type="line"/>
      <point x="160" y="659"/>
      <point x="185" y="659"/>
      <point x="205" y="659" type="curve" smooth="yes"/>
      <point x="232" y="659"/>
      <point x="257" y="609"/>
    </contour>
    <contour>
      <point x="-21" y="0" type="line"/>
      <point x="210" y="0" type="line"/>
      <point x="216" y="27" type="line"/>
      <point x="207" y="27"/>
      <point x="200" y="27"/>
      <point x="191" y="27" type="curve" smooth="yes"/>
      <point x="147" y="27"/>
      <point x="123" y="54"/>
      <point x="131" y="92" type="curve" smooth="yes"/>
      <point x="261" y="656" type="line"/>
      <point x="229" y="656" type="line"/>
      <point x="190" y="484"/>
      <point x="121" y="187"/>
      <point x="111" y="141" type="curve" smooth="yes"/>
      <point x="95" y="74"/>
      <point x="59" y="27"/>
      <point x="23" y="27" type="curve" smooth="yes"/>
      <point x="-14" y="27" type="line"/>
    </contour>
    <contour>
      <point x="491" y="0" type="line"/>
      <point x="754" y="0" type="line"/>
      <point x="760" y="28" type="line"/>
      <point x="751" y="28"/>
      <point x="744" y="28"/>
      <point x="733" y="28" type="curve" smooth="yes"/>
      <point x="695" y="28"/>
      <point x="675" y="53"/>
      <point x="683" y="88" type="curve" smooth="yes"/>
      <point x="692" y="126"/>
      <point x="796" y="580"/>
      <point x="804" y="611" type="curve" smooth="yes"/>
      <point x="810" y="640"/>
      <point x="830" y="660"/>
      <point x="852" y="660" type="curve" smooth="yes"/>
      <point x="887" y="660" type="line"/>
      <point x="896" y="700" type="line"/>
      <point x="739" y="700" type="line"/>
      <point x="693" y="498"/>
      <point x="604" y="114"/>
      <point x="599" y="91" type="curve" smooth="yes"/>
      <point x="590" y="54"/>
      <point x="577" y="28"/>
      <point x="566" y="28" type="curve" smooth="yes"/>
      <point x="499" y="28" type="line"/>
    </contour>
  </outline>
</glyph>
<glyph name="N" format="2">
  <advance width="755"/>
  <unicode hex="004E"/>
  <outline>
    <contour>
      <point x="234" y="634" type="curve" smooth="yes"/>
      <point x="577" y="-6" type="line"/>
      <point x="605" y="-6" type="line"/>
      <point x="650" y="189"/>
      <point x="730" y="535"/>
      <point x="741" y="579" type="curve" smooth="yes"/>
      <point x="753" y="633"/>
      <point x="793" y="672"/>
      <point x="837" y="672" type="curve" smooth="yes"/>
      <point x="870" y="672" type="line"/>
      <point x="876" y="700" type="line"/>
      <point x="606" y="700" type="line"/>
      <point x="600" y="672" type="line"/>
      <point x="609" y="672"/>
      <point x="644" y="672"/>
      <point x="656" y="672" type="curve" smooth="yes"/>
      <point x="692" y="672"/>
      <point x="711" y="640"/>
      <point x="700" y="594" type="curve" smooth="yes"/>
      <point x="598" y="164" type="line"/>
      <point x="310" y="700" type="line"/>
      <point x="151" y="697" type="line"/>
      <point x="144" y="669" type="line"/>
      <point x="155" y="669"/>
      <point x="165" y="669"/>
      <point x="177" y="669" type="curve" smooth="yes"/>
      <point x="199" y="669"/>
      <point x="222" y="654"/>
    </contour>
    <contour>
      <point x="5" y="0" type="line"/>
      <point x="263" y="0" type="line"/>
      <point x="269" y="27" type="line"/>
      <point x="218" y="27"/>
      <point x="214" y="27"/>
      <point x="205" y="27" type="curve" smooth="yes"/>
      <point x="161" y="27"/>
      <point x="137" y="54"/>
      <point x="145" y="92" type="curve" smooth="yes"/>
      <point x="275" y="656" type="line"/>
      <point x="243" y="656" type="line"/>
      <point x="204" y="484"/>
      <point x="135" y="187"/>
      <point x="125" y="141" type="curve" smooth="yes"/>
      <point x="109" y="74"/>
      <point x="73" y="27"/>
      <point x="37" y="27" type="curve" smooth="yes"/>
      <point x="11" y="27" type="line"/>
    </contour>
  </outline>
</glyph>
<glyph name="O" format="2">
  <advance width="761"/>
  <unicode hex="004F"/>
  <anchor x="315" y="0" name="bottom"/>
  <anchor x="422" y="350" name="center"/>
  <anchor x="629" y="10" name="ogonek"/>
  <anchor x="479" y="635" name="top"/>
  <anchor x="159" y="700" name="topleft"/>
  <anchor x="898" y="700" name="topright"/>
  <outline>
    <contour>
      <point x="313" y="-11" type="curve" smooth="yes"/>
      <point x="509" y="-11"/>
      <point x="684" y="145"/>
      <point x="735" y="365" type="curve" smooth="yes"/>
      <point x="782" y="572"/>
      <point x="679" y="719"/>
      <point x="485" y="719" type="curve" smooth="yes"/>
      <point x="294" y="719"/>
      <point x="124" y="572"/>
      <point x="77" y="365" type="curve" smooth="yes"/>
      <point x="26" y="145"/>
      <point x="123" y="-11"/>
    </contour>
    <contour>
      <point x="316" y="19" type="curve"/>
      <point x="184" y="19"/>
      <point x="148" y="179"/>
      <point x="200" y="405" type="curve" smooth="yes"/>
      <point x="238" y="571"/>
      <point x="360" y="689"/>
      <point x="481" y="689" type="curve" smooth="yes"/>
      <point x="613" y="689"/>
      <point x="662" y="539"/>
      <point x="613" y="326" type="curve" smooth="yes"/>
      <point x="571" y="146"/>
      <point x="437" y="19"/>
    </contour>
  </outline>
</glyph>
<glyph name="P" format="2">
  <advance width="577"/>
  <unicode hex="0050"/>
  <outline>
    <contour>
      <point x="4" y="0" type="line"/>
      <point x="256" y="0" type="line"/>
      <point x="262" y="28" type="line"/>
      <point x="257" y="28"/>
      <point x="237" y="28"/>
      <point x="228" y="28" type="curve" smooth="yes"/>
      <point x="194" y="28"/>
      <point x="173" y="57"/>
      <point x="183" y="98" type="curve" smooth="yes"/>
      <point x="194" y="148"/>
      <point x="304" y="626"/>
      <point x="308" y="642" type="curve" smooth="yes"/>
      <point x="312" y="657"/>
      <point x="335" y="667"/>
      <point x="359" y="667" type="curve" smooth="yes"/>
      <point x="447" y="667"/>
      <point x="494" y="595"/>
      <point x="469" y="486" type="curve" smooth="yes"/>
      <point x="444" y="382"/>
      <point x="375" y="309"/>
      <point x="300" y="309" type="curve"/>
      <point x="293" y="279" type="line"/>
      <point x="428" y="279"/>
      <point x="543" y="369"/>
      <point x="572" y="497" type="curve" smooth="yes"/>
      <point x="600" y="616"/>
      <point x="530" y="702"/>
      <point x="404" y="702" type="curve" smooth="yes"/>
      <point x="358" y="702"/>
      <point x="286" y="699"/>
      <point x="262" y="699" type="curve" smooth="yes"/>
      <point x="248" y="699"/>
      <point x="203" y="702"/>
      <point x="152" y="702" type="curve"/>
      <point x="145" y="672" type="line"/>
      <point x="192" y="672"/>
      <point x="226" y="653"/>
      <point x="219" y="625" type="curve" smooth="yes"/>
      <point x="209" y="579"/>
      <point x="94" y="81"/>
      <point x="89" y="63" type="curve" smooth="yes"/>
      <point x="85" y="43"/>
      <point x="62" y="28"/>
      <point x="42" y="28" type="curve" smooth="yes"/>
      <point x="11" y="28" type="line"/>
    </contour>
  </outline>
</glyph>
<glyph name="Q" format="2">
  <advance width="741"/>
  <unicode hex="0051"/>
  <outline>
    <contour>
      <point x="310" y="-18" type="curve" smooth="yes"/>
      <point x="507" y="-18"/>
      <point x="681" y="138"/>
      <point x="732" y="358" type="curve" smooth="yes"/>
      <point x="780" y="565"/>
      <point x="676" y="712"/>
      <point x="482" y="712" type="curve" smooth="yes"/>
      <point x="291" y="712"/>
      <point x="122" y="565"/>
      <point x="74" y="358" type="curve" smooth="yes"/>
      <point x="23" y="138"/>
      <point x="121" y="-18"/>
    </contour>
    <contour>
      <point x="789" y="-175" type="curve"/>
      <point x="817" y="-175"/>
      <point x="855" y="-171"/>
      <point x="882" y="-165" type="curve"/>
      <point x="887" y="-140" type="line"/>
      <point x="669" y="-153"/>
      <point x="483" y="-84"/>
      <point x="437" y="27" type="curve"/>
      <point x="387" y="8"/>
      <point x="342" y="-5"/>
      <point x="329" y="-5" type="curve" smooth="yes"/>
      <point x="303" y="-5"/>
      <point x="260" y="13"/>
      <point x="225" y="38" type="curve"/>
      <point x="224" y="8" type="line"/>
      <point x="341" y="-99"/>
      <point x="576" y="-175"/>
    </contour>
    <contour>
      <point x="323" y="12" type="curve"/>
      <point x="192" y="12"/>
      <point x="145" y="172"/>
      <point x="197" y="398" type="curve" smooth="yes"/>
      <point x="236" y="564"/>
      <point x="358" y="682"/>
      <point x="478" y="682" type="curve" smooth="yes"/>
      <point x="610" y="682"/>
      <point x="659" y="532"/>
      <point x="610" y="319" type="curve" smooth="yes"/>
      <point x="568" y="139"/>
      <point x="444" y="12"/>
    </contour>
  </outline>
</glyph>
<glyph name="R" format="2">
  <advance width="635"/>
  <unicode hex="0052"/>
  <outline>
    <contour>
      <point x="478" y="-3" type="curve" smooth="yes"/>
      <point x="533" y="-3"/>
      <point x="589" y="-2"/>
      <point x="615" y="0" type="curve"/>
      <point x="622" y="29" type="line"/>
      <point x="621" y="28"/>
      <point x="606" y="28"/>
      <point x="588" y="28" type="curve" smooth="yes"/>
      <point x="565" y="28"/>
      <point x="517" y="41"/>
      <point x="506" y="66" type="curve" smooth="yes"/>
      <point x="432" y="226"/>
      <point x="370" y="340"/>
      <point x="360" y="357" type="curve"/>
      <point x="364" y="328" type="line"/>
      <point x="485" y="352"/>
      <point x="580" y="439"/>
      <point x="602" y="537" type="curve" smooth="yes"/>
      <point x="623" y="627"/>
      <point x="556" y="700"/>
      <point x="437" y="700" type="curve" smooth="yes"/>
      <point x="402" y="700"/>
      <point x="306" y="698"/>
      <point x="281" y="698" type="curve" smooth="yes"/>
      <point x="237" y="698"/>
      <point x="195" y="700"/>
      <point x="152" y="700" type="curve"/>
      <point x="145" y="672" type="line"/>
      <point x="151" y="672"/>
      <point x="151" y="672"/>
      <point x="163" y="672" type="curve" smooth="yes"/>
      <point x="203" y="672"/>
      <point x="230" y="639"/>
      <point x="220" y="593" type="curve" smooth="yes"/>
      <point x="207" y="539"/>
      <point x="107" y="103"/>
      <point x="100" y="73" type="curve" smooth="yes"/>
      <point x="94" y="47"/>
      <point x="66" y="28"/>
      <point x="43" y="28" type="curve" smooth="yes"/>
      <point x="15" y="28" type="line"/>
      <point x="9" y="0" type="line"/>
      <point x="247" y="0" type="line"/>
      <point x="253" y="28" type="line"/>
      <point x="242" y="28"/>
      <point x="225" y="28"/>
      <point x="200" y="28" type="curve" smooth="yes"/>
      <point x="188" y="28"/>
      <point x="179" y="46"/>
      <point x="185" y="72" type="curve" smooth="yes"/>
      <point x="195" y="116"/>
      <point x="304" y="588"/>
      <point x="312" y="625" type="curve" smooth="yes"/>
      <point x="318" y="648"/>
      <point x="342" y="665"/>
      <point x="363" y="665" type="curve" smooth="yes"/>
      <point x="384" y="665"/>
      <point x="397" y="665"/>
      <point x="417" y="665" type="curve" smooth="yes"/>
      <point x="481" y="665"/>
      <point x="512" y="601"/>
      <point x="492" y="517" type="curve" smooth="yes"/>
      <point x="471" y="426"/>
      <point x="393" y="362"/>
      <point x="303" y="362" type="curve" smooth="yes"/>
      <point x="206" y="362" type="line"/>
      <point x="198" y="327" type="line"/>
      <point x="287" y="327" type="line"/>
      <point x="327" y="219"/>
      <point x="377" y="114"/>
      <point x="404" y="60" type="curve" smooth="yes"/>
      <point x="421" y="23"/>
      <point x="449" y="-3"/>
    </contour>
  </outline>
</glyph>
<glyph name="S" format="2">
  <advance width="507"/>
  <unicode hex="0053"/>
  <outline>
    <contour>
      <point x="186" y="-16" type="curve" smooth="yes"/>
      <point x="312" y="-16"/>
      <point x="420" y="71"/>
      <point x="449" y="194" type="curve" smooth="yes"/>
      <point x="495" y="395"/>
      <point x="210" y="384"/>
      <point x="252" y="563" type="curve" smooth="yes"/>
      <point x="268" y="633"/>
      <point x="333" y="682"/>
      <point x="389" y="682" type="curve" smooth="yes"/>
      <point x="455" y="682"/>
      <point x="486" y="618"/>
      <point x="480" y="527" type="curve"/>
      <point x="493" y="527" type="line"/>
      <point x="534" y="704" type="line"/>
      <point x="513" y="704" type="line"/>
      <point x="491" y="673" type="line"/>
      <point x="473" y="696"/>
      <point x="431" y="712"/>
      <point x="388" y="712" type="curve" smooth="yes"/>
      <point x="277" y="712"/>
      <point x="180" y="634"/>
      <point x="154" y="524" type="curve" smooth="yes"/>
      <point x="109" y="329"/>
      <point x="392" y="334"/>
      <point x="349" y="148" type="curve" smooth="yes"/>
      <point x="331" y="70"/>
      <point x="256" y="14"/>
      <point x="186" y="14" type="curve" smooth="yes"/>
      <point x="100" y="14"/>
      <point x="65" y="95"/>
      <point x="90" y="209" type="curve"/>
      <point x="62" y="209" type="line"/>
      <point x="37" y="100" type="line"/>
      <point x="56" y="32"/>
      <point x="118" y="-16"/>
    </contour>
  </outline>
</glyph>
<glyph name="T" format="2">
  <advance width="587"/>
  <unicode hex="0054"/>
  <outline>
    <contour>
      <point x="123" y="0" type="line"/>
      <point x="379" y="0" type="line"/>
      <point x="385" y="28" type="line"/>
      <point x="376" y="28"/>
      <point x="369" y="28"/>
      <point x="357" y="28" type="curve" smooth="yes"/>
      <point x="345" y="28"/>
      <point x="294" y="32"/>
      <point x="301" y="66" type="curve" smooth="yes"/>
      <point x="447" y="695" type="line"/>
      <point x="362" y="695" type="line"/>
      <point x="316" y="497"/>
      <point x="225" y="104"/>
      <point x="223" y="95" type="curve" smooth="yes"/>
      <point x="217" y="68"/>
      <point x="184" y="24"/>
      <point x="152" y="24" type="curve" smooth="yes"/>
      <point x="129" y="24" type="line"/>
    </contour>
    <contour>
      <point x="638" y="546" type="line"/>
      <point x="655" y="552" type="line"/>
      <point x="679" y="713" type="line"/>
      <point x="638" y="700" type="line"/>
      <point x="156" y="700" type="line"/>
      <point x="129" y="711" type="line"/>
      <point x="79" y="562" type="line"/>
      <point x="92" y="556" type="line"/>
      <point x="164" y="660" type="line"/>
      <point x="611" y="660" type="line"/>
    </contour>
  </outline>
</glyph>
<glyph name="U" format="2">
  <advance width="714"/>
  <unicode hex="0055"/>
  <anchor x="291" y="0" name="bottom"/>
  <anchor x="587" y="10" name="ogonek"/>
  <anchor x="442" y="635" name="top"/>
  <anchor x="851" y="700" name="topright"/>
  <outline>
    <contour>
      <point x="325" y="-11" type="curve" smooth="yes"/>
      <point x="491" y="-11"/>
      <point x="615" y="95"/>
      <point x="650" y="246" type="curve" smooth="yes"/>
      <point x="697" y="447"/>
      <point x="727" y="578"/>
      <point x="735" y="611" type="curve" smooth="yes"/>
      <point x="742" y="642"/>
      <point x="765" y="671"/>
      <point x="794" y="671" type="curve" smooth="yes"/>
      <point x="805" y="671" type="line"/>
      <point x="812" y="699" type="line"/>
      <point x="574" y="699" type="line"/>
      <point x="567" y="671" type="line"/>
      <point x="599" y="671"/>
      <point x="651" y="671"/>
      <point x="662" y="671" type="curve" smooth="yes"/>
      <point x="687" y="671"/>
      <point x="697" y="634"/>
      <point x="690" y="603" type="curve" smooth="yes"/>
      <point x="684" y="578"/>
      <point x="610" y="256"/>
      <point x="607" y="241" type="curve" smooth="yes"/>
      <point x="578" y="118"/>
      <point x="462" y="31"/>
      <point x="326" y="31" type="curve" smooth="yes"/>
      <point x="222" y="31"/>
      <point x="153" y="98"/>
      <point x="175" y="193" type="curve" smooth="yes"/>
      <point x="190" y="259"/>
      <point x="270" y="606"/>
      <point x="275" y="626" type="curve" smooth="yes"/>
      <point x="282" y="656"/>
      <point x="315" y="671"/>
      <point x="340" y="671" type="curve" smooth="yes"/>
      <point x="354" y="671" type="line"/>
      <point x="361" y="699" type="line"/>
      <point x="157" y="699" type="line"/>
      <point x="150" y="671" type="line"/>
      <point x="156" y="671"/>
      <point x="161" y="671"/>
      <point x="169" y="671" type="curve" smooth="yes"/>
      <point x="184" y="671"/>
      <point x="191" y="631"/>
      <point x="177" y="570" type="curve" smooth="yes"/>
      <point x="164" y="514"/>
      <point x="102" y="244"/>
      <point x="90" y="192" type="curve" smooth="yes"/>
      <point x="62" y="73"/>
      <point x="168" y="-11"/>
    </contour>
  </outline>
</glyph>
<glyph name="V" format="2">
  <advance width="584"/>
  <unicode hex="0056"/>
  <outline>
    <contour>
      <point x="155" y="627" type="curve"/>
      <point x="233" y="-12" type="line"/>
      <point x="265" y="0" type="line"/>
      <point x="607" y="641" type="line" smooth="yes"/>
      <point x="616" y="657"/>
      <point x="639" y="669"/>
      <point x="661" y="669" type="curve" smooth="yes"/>
      <point x="696" y="669" type="line"/>
      <point x="704" y="700" type="line"/>
      <point x="508" y="700" type="line"/>
      <point x="501" y="669" type="line"/>
      <point x="547" y="669" type="line" smooth="yes"/>
      <point x="567" y="669"/>
      <point x="574" y="658"/>
      <point x="565" y="641" type="curve" smooth="yes"/>
      <point x="303" y="150" type="line"/>
      <point x="240" y="621" type="line" smooth="yes"/>
      <point x="236" y="651"/>
      <point x="258" y="672"/>
      <point x="283" y="672" type="curve" smooth="yes"/>
      <point x="327" y="672" type="line"/>
      <point x="334" y="700" type="line"/>
      <point x="104" y="700" type="line"/>
      <point x="98" y="672" type="line"/>
      <point x="127" y="672" type="line" smooth="yes"/>
      <point x="139" y="672"/>
      <point x="150" y="653"/>
    </contour>
  </outline>
</glyph>
<glyph name="W" format="2">
  <advance width="858"/>
  <unicode hex="0057"/>
  <outline>
    <contour>
      <point x="486" y="627" type="curve"/>
      <point x="514" y="-12" type="line"/>
      <point x="545" y="0" type="line"/>
      <point x="871" y="641" type="line" smooth="yes"/>
      <point x="879" y="657"/>
      <point x="902" y="669"/>
      <point x="924" y="669" type="curve" smooth="yes"/>
      <point x="960" y="669" type="line"/>
      <point x="967" y="700" type="line"/>
      <point x="808" y="700" type="line"/>
      <point x="801" y="669" type="line"/>
      <point x="810" y="669" type="line" smooth="yes"/>
      <point x="831" y="669"/>
      <point x="837" y="658"/>
      <point x="828" y="641" type="curve" smooth="yes"/>
      <point x="597" y="167" type="line"/>
      <point x="576" y="616" type="line" smooth="yes"/>
      <point x="575" y="646"/>
      <point x="589" y="672"/>
      <point x="615" y="672" type="curve" smooth="yes"/>
      <point x="642" y="672" type="line"/>
      <point x="648" y="700" type="line"/>
      <point x="436" y="700" type="line"/>
      <point x="429" y="672" type="line"/>
      <point x="458" y="672" type="line" smooth="yes"/>
      <point x="470" y="672"/>
      <point x="482" y="653"/>
    </contour>
    <contour>
      <point x="155" y="627" type="curve"/>
      <point x="182" y="-12" type="line"/>
      <point x="214" y="0" type="line"/>
      <point x="573" y="672" type="line"/>
      <point x="530" y="672" type="line"/>
      <point x="266" y="164" type="line"/>
      <point x="244" y="621" type="line" smooth="yes"/>
      <point x="243" y="651"/>
      <point x="258" y="672"/>
      <point x="283" y="672" type="curve" smooth="yes"/>
      <point x="310" y="672" type="line"/>
      <point x="317" y="700" type="line"/>
      <point x="104" y="700" type="line"/>
      <point x="98" y="672" type="line"/>
      <point x="127" y="672" type="line" smooth="yes"/>
      <point x="139" y="672"/>
      <point x="150" y="653"/>
    </contour>
  </outline>
</glyph>
<glyph name="X" format="2">
  <advance width="631"/>
  <unicode hex="0058"/>
  <outline>
    <contour>
      <point x="301" y="0" type="line"/>
      <point x="556" y="0" type="line"/>
      <point x="562" y="28" type="line"/>
      <point x="537" y="28" type="line"/>
      <point x="522" y="28"/>
      <point x="496" y="49"/>
      <point x="486" y="79" type="curve" smooth="yes"/>
      <point x="428" y="259"/>
      <point x="347" y="493"/>
      <point x="287" y="642" type="curve" smooth="yes"/>
      <point x="281" y="660"/>
      <point x="293" y="672"/>
      <point x="316" y="672" type="curve" smooth="yes"/>
      <point x="368" y="672" type="line"/>
      <point x="375" y="700" type="line"/>
      <point x="137" y="700" type="line"/>
      <point x="130" y="672" type="line"/>
      <point x="140" y="672" type="line"/>
      <point x="158" y="672"/>
      <point x="183" y="662"/>
      <point x="188" y="649" type="curve" smooth="yes"/>
      <point x="205" y="601"/>
      <point x="369" y="132"/>
      <point x="374" y="116" type="curve" smooth="yes"/>
      <point x="391" y="64"/>
      <point x="373" y="28"/>
      <point x="345" y="28" type="curve" smooth="yes"/>
      <point x="307" y="28" type="line"/>
    </contour>
    <contour>
      <point x="-36" y="28" type="curve"/>
      <point x="-43" y="0" type="line"/>
      <point x="186" y="0" type="line"/>
      <point x="192" y="28" type="line"/>
      <point x="185" y="28"/>
      <point x="186" y="28"/>
      <point x="169" y="28" type="curve" smooth="yes"/>
      <point x="118" y="28"/>
      <point x="106" y="59"/>
      <point x="140" y="104" type="curve" smooth="yes"/>
      <point x="149" y="115"/>
      <point x="239" y="215"/>
      <point x="358" y="346" type="curve"/>
      <point x="345" y="369" type="line"/>
      <point x="274" y="290"/>
      <point x="160" y="166"/>
      <point x="70" y="70" type="curve" smooth="yes"/>
      <point x="46" y="45"/>
      <point x="2" y="28"/>
    </contour>
    <contour>
      <point x="343" y="359" type="curve"/>
      <point x="356" y="336" type="line"/>
      <point x="639" y="651" type="line"/>
      <point x="651" y="665"/>
      <point x="667" y="672"/>
      <point x="679" y="672" type="curve" smooth="yes"/>
      <point x="714" y="672" type="line"/>
      <point x="721" y="700" type="line"/>
      <point x="490" y="700" type="line"/>
      <point x="484" y="672" type="line"/>
      <point x="496" y="672"/>
      <point x="505" y="672"/>
      <point x="548" y="672" type="curve" smooth="yes"/>
      <point x="577" y="672"/>
      <point x="576" y="633"/>
      <point x="531" y="579" type="curve" smooth="yes"/>
      <point x="491" y="530"/>
      <point x="482" y="520"/>
    </contour>
  </outline>
</glyph>
<glyph name="Y" format="2">
  <advance width="548"/>
  <unicode hex="0059"/>
  <outline>
    <contour>
      <point x="170" y="649" type="curve"/>
      <point x="243" y="292" type="line"/>
      <point x="319" y="319" type="line"/>
      <point x="253" y="632" type="line"/>
      <point x="248" y="660"/>
      <point x="272" y="672"/>
      <point x="296" y="672" type="curve" smooth="yes"/>
      <point x="371" y="672" type="line"/>
      <point x="378" y="700" type="line"/>
      <point x="114" y="700" type="line"/>
      <point x="108" y="672" type="line"/>
      <point x="143" y="672" type="line"/>
      <point x="153" y="672"/>
      <point x="166" y="662"/>
    </contour>
    <contour>
      <point x="92" y="0" type="line"/>
      <point x="348" y="0" type="line"/>
      <point x="354" y="28" type="line"/>
      <point x="345" y="28"/>
      <point x="338" y="28"/>
      <point x="326" y="28" type="curve" smooth="yes"/>
      <point x="314" y="28"/>
      <point x="263" y="32"/>
      <point x="270" y="66" type="curve" smooth="yes"/>
      <point x="328" y="314" type="line"/>
      <point x="243" y="314" type="line"/>
      <point x="192" y="95" type="line"/>
      <point x="186" y="68"/>
      <point x="153" y="24"/>
      <point x="121" y="24" type="curve" smooth="yes"/>
      <point x="98" y="24" type="line"/>
    </contour>
    <contour>
      <point x="507" y="630" type="curve" smooth="yes"/>
      <point x="295" y="314" type="line"/>
      <point x="328" y="314" type="line"/>
      <point x="565" y="651" type="line"/>
      <point x="577" y="663"/>
      <point x="593" y="672"/>
      <point x="606" y="672" type="curve" smooth="yes"/>
      <point x="641" y="672" type="line"/>
      <point x="647" y="700" type="line"/>
      <point x="468" y="700" type="line"/>
      <point x="461" y="672" type="line"/>
      <point x="508" y="672" type="line"/>
      <point x="523" y="672"/>
      <point x="523" y="655"/>
    </contour>
  </outline>
</glyph>
<glyph name="Z" format="2">
  <advance width="581"/>
  <unicode hex="005A"/>
  <outline>
    <contour>
      <point x="-22" y="0" type="curve"/>
      <point x="191" y="0" type="line"/>
      <point x="199" y="35" type="line"/>
      <point x="140" y="35" type="line" smooth="yes"/>
      <point x="120" y="35"/>
      <point x="119" y="52"/>
      <point x="138" y="77" type="curve"/>
      <point x="604" y="649" type="line"/>
      <point x="616" y="700" type="line"/>
      <point x="216" y="700" type="line"/>
      <point x="116" y="482" type="line"/>
      <point x="144" y="476" type="line"/>
      <point x="210" y="587"/>
      <point x="275" y="665"/>
      <point x="299" y="665" type="curve" smooth="yes"/>
      <point x="485" y="665" type="line" smooth="yes"/>
      <point x="505" y="665"/>
      <point x="507" y="650"/>
      <point x="488" y="628" type="curve" smooth="yes"/>
      <point x="391" y="516"/>
      <point x="181" y="256"/>
    </contour>
    <contour>
      <point x="10" y="0" type="line"/>
      <point x="442" y="0" type="line"/>
      <point x="531" y="212" type="line"/>
      <point x="507" y="219" type="line"/>
      <point x="462" y="141"/>
      <point x="384" y="35"/>
      <point x="333" y="35" type="curve" smooth="yes"/>
      <point x="260" y="35" type="line"/>
      <point x="71" y="35" type="line"/>
      <point x="18" y="35" type="line"/>
    </contour>
  </outline>
</glyph>
<glyph name="a" format="2">
  <advance width="443"/>
  <unicode hex="0061"/>
  <anchor x="156" y="0" name="bottom"/>
  <anchor x="343" y="10" name="ogonek"/>
  <anchor x="288" y="435" name="top"/>
  <outline>
    <contour>
      <point x="70" y="-8" type="curve" smooth="yes"/>
      <point x="110" y="-8"/>
      <point x="195" y="53"/>
      <point x="276" y="140" type="curve"/>
      <point x="259" y="158" type="line"/>
      <point x="200" y="98"/>
      <point x="139" y="56"/>
      <point x="112" y="56" type="curve" smooth="yes"/>
      <point x="84" y="56"/>
      <point x="90" y="128"/>
      <point x="126" y="229" type="curve" smooth="yes"/>
      <point x="178" y="370"/>
      <point x="258" y="470"/>
      <point x="319" y="470" type="curve" smooth="yes"/>
      <point x="330" y="470"/>
      <point x="351" y="456"/>
      <point x="369" y="437" type="curve"/>
      <point x="407" y="476" type="line"/>
      <point x="391" y="495"/>
      <point x="366" y="508"/>
      <point x="347" y="508" type="curve" smooth="yes"/>
      <point x="233" y="508"/>
      <point x="105" y="379"/>
      <point x="38" y="197" type="curve" smooth="yes"/>
      <point x="-5" y="77"/>
      <point x="8" y="-8"/>
    </contour>
    <contour>
      <point x="256" y="-8" type="curve" smooth="yes"/>
      <point x="317" y="-8"/>
      <point x="395" y="82"/>
      <point x="444" y="210" type="curve"/>
      <point x="414" y="210" type="line"/>
      <point x="379" y="119"/>
      <point x="338" y="54"/>
      <point x="315" y="54" type="curve" smooth="yes"/>
      <point x="295" y="54"/>
      <point x="300" y="105"/>
      <point x="327" y="177" type="curve" smooth="yes"/>
      <point x="365" y="284"/>
      <point x="417" y="421"/>
      <point x="453" y="508" type="curve"/>
      <point x="375" y="500" type="line"/>
      <point x="281" y="250"/>
      <point x="204" y="52"/>
      <point x="235" y="135" type="curve"/>
      <point x="204" y="51"/>
      <point x="213" y="-8"/>
    </contour>
  </outline>
</glyph>
<glyph name="b" format="2">
  <advance width="452"/>
  <unicode hex="0062"/>
  <outline>
    <contour>
      <point x="111" y="-8" type="curve" smooth="yes"/>
      <point x="222" y="-8"/>
      <point x="346" y="116"/>
      <point x="410" y="291" type="curve" smooth="yes"/>
      <point x="456" y="418"/>
      <point x="436" y="508"/>
      <point x="362" y="508" type="curve" smooth="yes"/>
      <point x="296" y="508"/>
      <point x="185" y="383"/>
      <point x="94" y="207" type="curve"/>
      <point x="123" y="189" type="line"/>
      <point x="189" y="332"/>
      <point x="265" y="434"/>
      <point x="305" y="434" type="curve" smooth="yes"/>
      <point x="358" y="434"/>
      <point x="367" y="351"/>
      <point x="326" y="234" type="curve" smooth="yes"/>
      <point x="288" y="127"/>
      <point x="226" y="52"/>
      <point x="177" y="52" type="curve" smooth="yes"/>
      <point x="125" y="52"/>
      <point x="86" y="86"/>
      <point x="83" y="133" type="curve"/>
      <point x="16" y="41" type="line"/>
      <point x="51" y="12"/>
      <point x="90" y="-8"/>
    </contour>
    <contour>
      <point x="85" y="18" type="line"/>
      <point x="105" y="79"/>
      <point x="250" y="572"/>
      <point x="293" y="700" type="curve"/>
      <point x="218" y="700" type="line"/>
      <point x="16" y="41" type="line"/>
    </contour>
    <contour>
      <point x="209" y="634" type="curve"/>
      <point x="218" y="700" type="line"/>
      <point x="104" y="700" type="line"/>
      <point x="96" y="672" type="line"/>
      <point x="150" y="675"/>
      <point x="198" y="659"/>
    </contour>
  </outline>
</glyph>
<glyph name="g" format="2">
  <advance width="456"/>
  <unicode hex="0067"/>
  <outline>
    <contour>
      <point x="120" y="-208" type="curve" smooth="yes"/>
      <point x="247" y="-208"/>
      <point x="359" y="-152"/>
      <point x="391" y="-72" type="curve" smooth="yes"/>
      <point x="408" y="-30"/>
      <point x="369" y="18"/>
      <point x="297" y="44" type="curve" smooth="yes"/>
      <point x="206" y="77"/>
      <point x="147" y="114"/>
      <point x="154" y="134" type="curve" smooth="yes"/>
      <point x="164" y="159"/>
      <point x="187" y="179"/>
      <point x="209" y="182" type="curve"/>
      <point x="175" y="191" type="line"/>
      <point x="141" y="176"/>
      <point x="109" y="143"/>
      <point x="98" y="111" type="curve" smooth="yes"/>
      <point x="84" y="71"/>
      <point x="103" y="32"/>
      <point x="145" y="17" type="curve" smooth="yes"/>
      <point x="254" y="-22"/>
      <point x="323" y="-70"/>
      <point x="313" y="-98" type="curve" smooth="yes"/>
      <point x="298" y="-139"/>
      <point x="239" y="-172"/>
      <point x="172" y="-177" type="curve" smooth="yes"/>
      <point x="45" y="-185"/>
      <point x="-23" y="-135"/>
      <point x="8" y="-57" type="curve" smooth="yes"/>
      <point x="29" y="-2"/>
      <point x="86" y="45"/>
      <point x="145" y="56" type="curve"/>
      <point x="127" y="78" type="line"/>
      <point x="29" y="56"/>
      <point x="-58" y="-6"/>
      <point x="-82" y="-73" type="curve" smooth="yes"/>
      <point x="-110" y="-152"/>
      <point x="-26" y="-208"/>
    </contour>
    <contour>
      <point x="188" y="163" type="curve" smooth="yes"/>
      <point x="269" y="163"/>
      <point x="349" y="223"/>
      <point x="380" y="307" type="curve" smooth="yes"/>
      <point x="424" y="424"/>
      <point x="399" y="507"/>
      <point x="320" y="507" type="curve" smooth="yes"/>
      <point x="231" y="507"/>
      <point x="143" y="442"/>
      <point x="109" y="351" type="curve" smooth="yes"/>
      <point x="67" y="241"/>
      <point x="100" y="163"/>
    </contour>
    <contour>
      <point x="199" y="191" type="curve" smooth="yes"/>
      <point x="156" y="191"/>
      <point x="153" y="264"/>
      <point x="192" y="367" type="curve" smooth="yes"/>
      <point x="217" y="432"/>
      <point x="265" y="478"/>
      <point x="308" y="478" type="curve" smooth="yes"/>
      <point x="342" y="478"/>
      <point x="337" y="401"/>
      <point x="295" y="292" type="curve" smooth="yes"/>
      <point x="273" y="233"/>
      <point x="233" y="191"/>
    </contour>
    <contour>
      <point x="328" y="353" type="curve"/>
      <point x="347" y="334" type="line"/>
      <point x="388" y="408"/>
      <point x="423" y="461"/>
      <point x="433" y="461" type="curve"/>
      <point x="445" y="461"/>
      <point x="457" y="454"/>
      <point x="462" y="445" type="curve"/>
      <point x="501" y="482" type="line"/>
      <point x="496" y="497"/>
      <point x="472" y="508"/>
      <point x="443" y="508" type="curve" smooth="yes"/>
      <point x="418" y="508"/>
      <point x="370" y="444"/>
    </contour>
  </outline>
</glyph>
<glyph name="i" format="2">
  <advance width="258"/>
  <unicode hex="0069"/>
  <outline>
    <contour>
      <point x="219" y="612" type="curve" smooth="yes"/>
      <point x="250" y="612"/>
      <point x="281" y="633"/>
      <point x="289" y="659" type="curve" smooth="yes"/>
      <point x="297" y="685"/>
      <point x="279" y="706"/>
      <point x="248" y="706" type="curve" smooth="yes"/>
      <point x="217" y="706"/>
      <point x="187" y="685"/>
      <point x="179" y="659" type="curve" smooth="yes"/>
      <point x="171" y="633"/>
      <point x="188" y="612"/>
    </contour>
    <contour>
      <point x="126" y="323" type="curve" smooth="yes"/>
      <point x="60" y="143" type="line" smooth="yes"/>
      <point x="27" y="55"/>
      <point x="34" y="-8"/>
      <point x="78" y="-8" type="curve" smooth="yes"/>
      <point x="138" y="-8"/>
      <point x="218" y="86"/>
      <point x="271" y="218" type="curve"/>
      <point x="241" y="218" type="line"/>
      <point x="204" y="127"/>
      <point x="161" y="62"/>
      <point x="137" y="62" type="curve" smooth="yes"/>
      <point x="118" y="62"/>
      <point x="124" y="113"/>
      <point x="151" y="185" type="curve" smooth="yes"/>
      <point x="244" y="426" type="line" smooth="yes"/>
      <point x="264" y="474"/>
      <point x="252" y="508"/>
      <point x="217" y="508" type="curve" smooth="yes"/>
      <point x="144" y="508"/>
      <point x="58" y="418"/>
      <point x="9" y="290" type="curve"/>
      <point x="39" y="290" type="line"/>
      <point x="74" y="381"/>
      <point x="121" y="446"/>
      <point x="153" y="446" type="curve" smooth="yes"/>
      <point x="164" y="446"/>
      <point x="153" y="395"/>
    </contour>
  </outline>
</glyph>
<glyph name="k" format="2">
  <advance width="381"/>
  <unicode hex="006B"/>
  <outline>
    <contour>
      <point x="61" y="173" type="line"/>
      <point x="312" y="330" type="line" smooth="yes"/>
      <point x="366" y="364"/>
      <point x="402" y="418"/>
      <point x="400" y="461" type="curve"/>
      <point x="399" y="489"/>
      <point x="377" y="508"/>
      <point x="346" y="508" type="curve" smooth="yes"/>
      <point x="279" y="508"/>
      <point x="185" y="421"/>
      <point x="119" y="298" type="curve"/>
      <point x="121" y="253" type="line"/>
      <point x="177" y="365"/>
      <point x="254" y="444"/>
      <point x="307" y="444" type="curve" smooth="yes"/>
      <point x="319" y="444"/>
      <point x="328" y="431"/>
      <point x="328" y="413" type="curve" smooth="yes"/>
      <point x="328" y="390"/>
      <point x="304" y="359"/>
      <point x="270" y="338" type="curve" smooth="yes"/>
      <point x="57" y="206" type="line"/>
    </contour>
    <contour>
      <point x="-24" y="0" type="line"/>
      <point x="54" y="0" type="line"/>
      <point x="267" y="700" type="line"/>
      <point x="192" y="700" type="line"/>
    </contour>
    <contour>
      <point x="272" y="-8" type="curve" smooth="yes"/>
      <point x="308" y="-8"/>
      <point x="357" y="29"/>
      <point x="390" y="82" type="curve"/>
      <point x="369" y="97" type="line"/>
      <point x="353" y="76"/>
      <point x="336" y="60"/>
      <point x="328" y="59" type="curve" smooth="yes"/>
      <point x="301" y="56"/>
      <point x="252" y="160"/>
      <point x="233" y="311" type="curve"/>
      <point x="163" y="262" type="line"/>
      <point x="181" y="104"/>
      <point x="236" y="-8"/>
    </contour>
    <contour>
      <point x="183" y="634" type="curve"/>
      <point x="192" y="700" type="line"/>
      <point x="78" y="700" type="line"/>
      <point x="70" y="672" type="line"/>
      <point x="125" y="675"/>
      <point x="172" y="659"/>
    </contour>
  </outline>
</glyph>
<glyph name="m" format="2">
  <advance width="738"/>
  <unicode hex="006D"/>
  <outline>
    <contour>
      <point x="534" y="-8" type="curve" smooth="yes"/>
      <point x="594" y="-8"/>
      <point x="674" y="86"/>
      <point x="727" y="218" type="curve"/>
      <point x="697" y="218" type="line"/>
      <point x="660" y="127"/>
      <point x="617" y="62"/>
      <point x="593" y="62" type="curve" smooth="yes"/>
      <point x="574" y="62"/>
      <point x="580" y="113"/>
      <point x="607" y="185" type="curve" smooth="yes"/>
      <point x="624" y="230"/>
      <point x="652" y="298"/>
      <point x="675" y="359" type="curve" smooth="yes"/>
      <point x="708" y="446"/>
      <point x="694" y="508"/>
      <point x="642" y="508" type="curve" smooth="yes"/>
      <point x="582" y="508"/>
      <point x="486" y="417"/>
      <point x="409" y="288" type="curve"/>
      <point x="409" y="243" type="line"/>
      <point x="471" y="355"/>
      <point x="550" y="434"/>
      <point x="599" y="434" type="curve" smooth="yes"/>
      <point x="614" y="434"/>
      <point x="606" y="382"/>
      <point x="580" y="308" type="curve"/>
      <point x="516" y="143" type="line"/>
      <point x="483" y="55"/>
      <point x="490" y="-8"/>
    </contour>
    <contour>
      <point x="27" y="0" type="curve"/>
      <point x="102" y="0" type="line"/>
      <point x="196" y="250"/>
      <point x="273" y="448"/>
      <point x="242" y="365" type="curve" smooth="yes"/>
      <point x="273" y="449"/>
      <point x="264" y="508"/>
      <point x="221" y="508" type="curve" smooth="yes"/>
      <point x="160" y="508"/>
      <point x="82" y="418"/>
      <point x="33" y="290" type="curve"/>
      <point x="63" y="290" type="line"/>
      <point x="98" y="381"/>
      <point x="139" y="446"/>
      <point x="162" y="446" type="curve" smooth="yes"/>
      <point x="182" y="446"/>
      <point x="177" y="395"/>
      <point x="150" y="323" type="curve" smooth="yes"/>
      <point x="113" y="219"/>
      <point x="62" y="85"/>
    </contour>
    <contour>
      <point x="360" y="308" type="curve"/>
      <point x="238" y="0" type="line"/>
      <point x="313" y="0" type="line"/>
      <point x="330" y="45"/>
      <point x="432" y="298"/>
      <point x="455" y="359" type="curve" smooth="yes"/>
      <point x="488" y="446"/>
      <point x="474" y="508"/>
      <point x="422" y="508" type="curve" smooth="yes"/>
      <point x="365" y="508"/>
      <point x="270" y="417"/>
      <point x="193" y="288" type="curve"/>
      <point x="193" y="243" type="line"/>
      <point x="255" y="355"/>
      <point x="330" y="434"/>
      <point x="374" y="434" type="curve" smooth="yes"/>
      <point x="392" y="434"/>
      <point x="386" y="382"/>
    </contour>
  </outline>
</glyph>
<glyph name="n" format="2">
  <advance width="512"/>
  <unicode hex="006E"/>
  <outline>
    <contour>
      <point x="311" y="-8" type="curve" smooth="yes"/>
      <point x="371" y="-8"/>
      <point x="451" y="86"/>
      <point x="504" y="218" type="curve"/>
      <point x="474" y="218" type="line"/>
      <point x="437" y="127"/>
      <point x="394" y="62"/>
      <point x="370" y="62" type="curve" smooth="yes"/>
      <point x="351" y="62"/>
      <point x="357" y="113"/>
      <point x="384" y="185" type="curve" smooth="yes"/>
      <point x="401" y="230"/>
      <point x="428" y="298"/>
      <point x="451" y="359" type="curve" smooth="yes"/>
      <point x="484" y="446"/>
      <point x="471" y="508"/>
      <point x="419" y="508" type="curve" smooth="yes"/>
      <point x="361" y="508"/>
      <point x="266" y="417"/>
      <point x="189" y="288" type="curve"/>
      <point x="189" y="243" type="line"/>
      <point x="251" y="355"/>
      <point x="326" y="434"/>
      <point x="371" y="434" type="curve" smooth="yes"/>
      <point x="389" y="434"/>
      <point x="383" y="382"/>
      <point x="357" y="308" type="curve"/>
      <point x="293" y="143" type="line"/>
      <point x="260" y="55"/>
      <point x="267" y="-8"/>
    </contour>
    <contour>
      <point x="24" y="0" type="curve"/>
      <point x="99" y="0" type="line"/>
      <point x="193" y="250"/>
      <point x="270" y="448"/>
      <point x="239" y="365" type="curve" smooth="yes"/>
      <point x="270" y="449"/>
      <point x="261" y="508"/>
      <point x="218" y="508" type="curve" smooth="yes"/>
      <point x="157" y="508"/>
      <point x="79" y="418"/>
      <point x="30" y="290" type="curve"/>
      <point x="60" y="290" type="line"/>
      <point x="95" y="381"/>
      <point x="136" y="446"/>
      <point x="159" y="446" type="curve" smooth="yes"/>
      <point x="179" y="446"/>
      <point x="174" y="395"/>
      <point x="147" y="323" type="curve" smooth="yes"/>
      <point x="110" y="219"/>
      <point x="59" y="85"/>
    </contour>
  </outline>
</glyph>
<glyph name="t" format="2">
  <advance width="258"/>
  <unicode hex="0074"/>
  <outline>
    <contour>
      <point x="71" y="-8" type="curve" smooth="yes"/>
      <point x="135" y="-8"/>
      <point x="206" y="86"/>
      <point x="244" y="218" type="curve"/>
      <point x="214" y="218" type="line"/>
      <point x="187" y="127"/>
      <point x="150" y="62"/>
      <point x="125" y="62" type="curve" smooth="yes"/>
      <point x="107" y="62"/>
      <point x="108" y="116"/>
      <point x="129" y="193" type="curve" smooth="yes"/>
      <point x="157" y="297"/>
      <point x="206" y="469"/>
      <point x="247" y="609" type="curve"/>
      <point x="154" y="599" type="line"/>
      <point x="43" y="151" type="line"/>
      <point x="17" y="58"/>
      <point x="29" y="-8"/>
    </contour>
    <contour>
      <point x="31" y="458" type="line"/>
      <point x="295" y="458" type="line"/>
      <point x="308" y="500" type="line"/>
      <point x="44" y="500" type="line"/>
    </contour>
  </outline>
</glyph>
<glyph name="u" format="2">
  <advance width="518"/>
  <unicode hex="0075"/>
  <anchor x="193" y="0" name="bottom"/>
  <anchor x="410" y="10" name="ogonek"/>
  <anchor x="325" y="435" name="top"/>
  <anchor x="573" y="435" name="topright"/>
  <outline>
    <contour>
      <point x="116" y="-8" type="curve" smooth="yes"/>
      <point x="174" y="-8"/>
      <point x="269" y="83"/>
      <point x="346" y="212" type="curve"/>
      <point x="346" y="257" type="line"/>
      <point x="284" y="145"/>
      <point x="207" y="66"/>
      <point x="159" y="66" type="curve" smooth="yes"/>
      <point x="144" y="66"/>
      <point x="152" y="118"/>
      <point x="178" y="192" type="curve" smooth="yes"/>
      <point x="178" y="189"/>
      <point x="205" y="258"/>
      <point x="242" y="357" type="curve" smooth="yes"/>
      <point x="275" y="445"/>
      <point x="276" y="508"/>
      <point x="244" y="508" type="curve" smooth="yes"/>
      <point x="172" y="508"/>
      <point x="84" y="414"/>
      <point x="31" y="282" type="curve"/>
      <point x="61" y="282" type="line"/>
      <point x="98" y="373"/>
      <point x="150" y="438"/>
      <point x="185" y="438" type="curve" smooth="yes"/>
      <point x="192" y="438"/>
      <point x="178" y="387"/>
      <point x="151" y="315" type="curve" smooth="yes"/>
      <point x="134" y="270"/>
      <point x="107" y="202"/>
      <point x="84" y="141" type="curve" smooth="yes"/>
      <point x="51" y="54"/>
      <point x="64" y="-8"/>
    </contour>
    <contour>
      <point x="317" y="-8" type="curve" smooth="yes"/>
      <point x="378" y="-8"/>
      <point x="456" y="82"/>
      <point x="505" y="210" type="curve"/>
      <point x="475" y="210" type="line"/>
      <point x="440" y="119"/>
      <point x="399" y="54"/>
      <point x="376" y="54" type="curve" smooth="yes"/>
      <point x="356" y="54"/>
      <point x="361" y="105"/>
      <point x="388" y="177" type="curve" smooth="yes"/>
      <point x="418" y="261"/>
      <point x="468" y="395"/>
      <point x="511" y="500" type="curve"/>
      <point x="436" y="500" type="line"/>
      <point x="342" y="250"/>
      <point x="265" y="52"/>
      <point x="296" y="135" type="curve" smooth="yes"/>
      <point x="265" y="51"/>
      <point x="274" y="-8"/>
    </contour>
  </outline>
</glyph>
<glyph name="v" format="2">
  <advance width="423"/>
  <unicode hex="0076"/>
  <outline>
    <contour>
      <point x="11" y="290" type="curve"/>
      <point x="41" y="290" type="line"/>
      <point x="74" y="381"/>
      <point x="115" y="446"/>
      <point x="140" y="446" type="curve" smooth="yes"/>
      <point x="178" y="446"/>
      <point x="194" y="409"/>
      <point x="178" y="357" type="curve" smooth="yes"/>
      <point x="168" y="324"/>
      <point x="85" y="216"/>
      <point x="71" y="176" type="curve" smooth="yes"/>
      <point x="33" y="68"/>
      <point x="67" y="-8"/>
      <point x="153" y="-8" type="curve" smooth="yes"/>
      <point x="234" y="-8"/>
      <point x="333" y="106"/>
      <point x="392" y="268" type="curve" smooth="yes"/>
      <point x="443" y="408"/>
      <point x="426" y="507"/>
      <point x="355" y="507" type="curve" smooth="yes"/>
      <point x="330" y="507"/>
      <point x="306" y="487"/>
      <point x="296" y="460" type="curve" smooth="yes"/>
      <point x="287" y="436"/>
      <point x="291" y="419"/>
      <point x="308" y="419" type="curve" smooth="yes"/>
      <point x="360" y="419"/>
      <point x="376" y="329"/>
      <point x="335" y="216" type="curve" smooth="yes"/>
      <point x="302" y="123"/>
      <point x="244" y="57"/>
      <point x="196" y="57" type="curve" smooth="yes"/>
      <point x="127" y="57"/>
      <point x="116" y="122"/>
      <point x="163" y="256" type="curve" smooth="yes"/>
      <point x="202" y="365"/>
      <point x="233" y="372"/>
      <point x="256" y="444" type="curve" smooth="yes"/>
      <point x="267" y="481"/>
      <point x="244" y="507"/>
      <point x="199" y="507" type="curve" smooth="yes"/>
      <point x="135" y="507"/>
      <point x="57" y="417"/>
    </contour>
  </outline>
</glyph>
<glyph name="w" format="2">
  <advance width="627"/>
  <unicode hex="0077"/>
  <outline>
    <contour>
      <point x="349" y="-8" type="curve" smooth="yes"/>
      <point x="436" y="-8"/>
      <point x="539" y="106"/>
      <point x="598" y="268" type="curve" smooth="yes"/>
      <point x="649" y="408"/>
      <point x="634" y="507"/>
      <point x="561" y="507" type="curve" smooth="yes"/>
      <point x="536" y="507"/>
      <point x="512" y="488"/>
      <point x="502" y="460" type="curve" smooth="yes"/>
      <point x="493" y="436"/>
      <point x="498" y="419"/>
      <point x="514" y="419" type="curve" smooth="yes"/>
      <point x="573" y="419"/>
      <point x="584" y="335"/>
      <point x="541" y="216" type="curve" smooth="yes"/>
      <point x="508" y="123"/>
      <point x="446" y="57"/>
      <point x="392" y="57" type="curve" smooth="yes"/>
      <point x="369" y="57"/>
      <point x="342" y="70"/>
      <point x="326" y="89" type="curve"/>
      <point x="349" y="127"/>
      <point x="388" y="191"/>
      <point x="413" y="263" type="curve" smooth="yes"/>
      <point x="446" y="356"/>
      <point x="458" y="454"/>
      <point x="410" y="454" type="curve" smooth="yes"/>
      <point x="359" y="454"/>
      <point x="294" y="356"/>
      <point x="254" y="218" type="curve" smooth="yes"/>
      <point x="239" y="168"/>
      <point x="234" y="104"/>
      <point x="241" y="64" type="curve"/>
      <point x="228" y="60"/>
      <point x="211" y="57"/>
      <point x="201" y="57" type="curve" smooth="yes"/>
      <point x="141" y="57"/>
      <point x="127" y="139"/>
      <point x="168" y="256" type="curve" smooth="yes"/>
      <point x="207" y="365"/>
      <point x="238" y="372"/>
      <point x="261" y="444" type="curve" smooth="yes"/>
      <point x="272" y="481"/>
      <point x="248" y="507"/>
      <point x="204" y="507" type="curve" smooth="yes"/>
      <point x="140" y="507"/>
      <point x="62" y="417"/>
      <point x="16" y="290" type="curve"/>
      <point x="46" y="290" type="line"/>
      <point x="79" y="381"/>
      <point x="120" y="446"/>
      <point x="145" y="446" type="curve" smooth="yes"/>
      <point x="183" y="446"/>
      <point x="199" y="409"/>
      <point x="183" y="357" type="curve" smooth="yes"/>
      <point x="173" y="324"/>
      <point x="90" y="216"/>
      <point x="76" y="176" type="curve" smooth="yes"/>
      <point x="38" y="68"/>
      <point x="72" y="-8"/>
      <point x="158" y="-8" type="curve" smooth="yes"/>
      <point x="188" y="-8"/>
      <point x="230" y="7"/>
      <point x="261" y="29" type="curve"/>
      <point x="280" y="7"/>
      <point x="316" y="-8"/>
    </contour>
    <contour>
      <point x="311" y="134" type="curve"/>
      <point x="299" y="179"/>
      <point x="306" y="259"/>
      <point x="329" y="328" type="curve" smooth="yes"/>
      <point x="343" y="368"/>
      <point x="367" y="397"/>
      <point x="386" y="397" type="curve" smooth="yes"/>
      <point x="409" y="397"/>
      <point x="407" y="346"/>
      <point x="382" y="273" type="curve" smooth="yes"/>
      <point x="373" y="241"/>
      <point x="344" y="183"/>
    </contour>
  </outline>
</glyph>
<glyph name="x" format="2">
  <advance width="512"/>
  <unicode hex="0078"/>
  <outline>
    <contour>
      <point x="20" y="-3" type="curve" smooth="yes"/>
      <point x="102" y="-3"/>
      <point x="408" y="419"/>
      <point x="451" y="419" type="curve" smooth="yes"/>
      <point x="482" y="419"/>
      <point x="505" y="404"/>
      <point x="508" y="383" type="curve"/>
      <point x="560" y="452" type="line"/>
      <point x="545" y="485"/>
      <point x="524" y="508"/>
      <point x="508" y="508" type="curve" smooth="yes"/>
      <point x="448" y="508"/>
      <point x="114" y="91"/>
      <point x="87" y="91" type="curve" smooth="yes"/>
      <point x="70" y="91"/>
      <point x="53" y="108"/>
      <point x="45" y="132" type="curve"/>
      <point x="-19" y="77" type="line"/>
      <point x="-8" y="30"/>
      <point x="8" y="-3"/>
    </contour>
    <contour>
      <point x="298" y="-3" type="curve" smooth="yes"/>
      <point x="333" y="-3"/>
      <point x="386" y="30"/>
      <point x="425" y="77" type="curve"/>
      <point x="403" y="92" type="line"/>
      <point x="381" y="68"/>
      <point x="353" y="51"/>
      <point x="336" y="51" type="curve" smooth="yes"/>
      <point x="309" y="51"/>
      <point x="302" y="508"/>
      <point x="242" y="508" type="curve" smooth="yes"/>
      <point x="205" y="508"/>
      <point x="140" y="472"/>
      <point x="87" y="422" type="curve"/>
      <point x="89" y="393" type="line"/>
      <point x="113" y="426"/>
      <point x="152" y="449"/>
      <point x="184" y="449" type="curve" smooth="yes"/>
      <point x="227" y="449"/>
      <point x="216" y="-3"/>
    </contour>
  </outline>
</glyph>
<glyph name="z" format="2">
  <advance width="412"/>
  <unicode hex="007A"/>
  <outline>
    <contour>
      <point x="1" y="-14" type="line"/>
      <point x="425" y="493" type="line"/>
      <point x="403" y="509" type="line"/>
      <point x="-23" y="2" type="line"/>
    </contour>
    <contour>
      <point x="-23" y="2" type="curve"/>
      <point x="8" y="-20" type="line"/>
      <point x="25" y="3"/>
      <point x="58" y="19"/>
      <point x="89" y="19" type="curve" smooth="yes"/>
      <point x="107" y="19"/>
      <point x="160" y="-14"/>
      <point x="201" y="-14" type="curve" smooth="yes"/>
      <point x="251" y="-14"/>
      <point x="306" y="24"/>
      <point x="333" y="77" type="curve" smooth="yes"/>
      <point x="375" y="163" type="line"/>
      <point x="356" y="172" type="line"/>
      <point x="325" y="117" type="line"/>
      <point x="309" y="88"/>
      <point x="262" y="68"/>
      <point x="231" y="68" type="curve" smooth="yes"/>
      <point x="205" y="68"/>
      <point x="152" y="101"/>
      <point x="118" y="101" type="curve" smooth="yes"/>
      <point x="68" y="101"/>
      <point x="9" y="50"/>
    </contour>
    <contour>
      <point x="72" y="323" type="line"/>
      <point x="101" y="378" type="line"/>
      <point x="116" y="407"/>
      <point x="157" y="427"/>
      <point x="186" y="427" type="curve" smooth="yes"/>
      <point x="210" y="427"/>
      <point x="260" y="394"/>
      <point x="292" y="394" type="curve" smooth="yes"/>
      <point x="340" y="394"/>
      <point x="385" y="435"/>
      <point x="425" y="493" type="curve"/>
      <point x="396" y="515" type="line"/>
      <point x="380" y="492"/>
      <point x="349" y="476"/>
      <point x="320" y="476" type="curve" smooth="yes"/>
      <point x="303" y="476"/>
      <point x="253" y="509"/>
      <point x="214" y="509" type="curve" smooth="yes"/>
      <point x="167" y="509"/>
      <point x="115" y="471"/>
      <point x="90" y="418" type="curve" smooth="yes"/>
      <point x="50" y="332" type="line"/>
    </contour>
  </outline>
</glyph>
<glyph name="AE" format="2">
  <advance width="803"/>
  <unicode hex="00C6"/>
  <outline>
    <contour>
      <point x="525" y="-2" type="curve" smooth="yes"/>
      <point x="662" y="0" type="line"/>
      <point x="771" y="131" type="line"/>
      <point x="757" y="149" type="line"/>
      <point x="689" y="82"/>
      <point x="631" y="34"/>
      <point x="606" y="34" type="curve" smooth="yes"/>
      <point x="570" y="34"/>
      <point x="512" y="34"/>
      <point x="494" y="34" type="curve" smooth="yes"/>
      <point x="463" y="34"/>
      <point x="445" y="56"/>
      <point x="452" y="86" type="curve" smooth="yes"/>
      <point x="459" y="116"/>
      <point x="576" y="623"/>
      <point x="579" y="635" type="curve" smooth="yes"/>
      <point x="583" y="653"/>
      <point x="606" y="665"/>
      <point x="634" y="665" type="curve" smooth="yes"/>
      <point x="651" y="665"/>
      <point x="688" y="665"/>
      <point x="703" y="665" type="curve" smooth="yes"/>
      <point x="738" y="665"/>
      <point x="775" y="613"/>
      <point x="794" y="539" type="curve"/>
      <point x="817" y="552" type="line"/>
      <point x="794" y="700" type="line"/>
      <point x="710" y="700"/>
      <point x="636" y="698"/>
      <point x="551" y="698" type="curve" smooth="yes"/>
      <point x="511" y="698"/>
      <point x="376" y="700"/>
      <point x="331" y="700" type="curve"/>
      <point x="324" y="672" type="line"/>
      <point x="368" y="672"/>
      <point x="430" y="672"/>
      <point x="454" y="672" type="curve" smooth="yes"/>
      <point x="482" y="672"/>
      <point x="500" y="661"/>
      <point x="493" y="633" type="curve" smooth="yes"/>
      <point x="476" y="559"/>
      <point x="381" y="147"/>
      <point x="371" y="106" type="curve" smooth="yes"/>
      <point x="361" y="60"/>
      <point x="336" y="28"/>
      <point x="310" y="28" type="curve" smooth="yes"/>
      <point x="283" y="28" type="line"/>
      <point x="276" y="0" type="line"/>
      <point x="311" y="0"/>
      <point x="356" y="2"/>
      <point x="387" y="2" type="curve" smooth="yes"/>
      <point x="417" y="2"/>
      <point x="491" y="-2"/>
    </contour>
    <contour>
      <point x="-46" y="0" type="line"/>
      <point x="197" y="0" type="line"/>
      <point x="204" y="28" type="line"/>
      <point x="189" y="28" type="line"/>
      <point x="156" y="28"/>
      <point x="139" y="58"/>
      <point x="161" y="98" type="curve"/>
      <point x="498" y="686" type="line"/>
      <point x="470" y="689" type="line"/>
      <point x="269" y="371"/>
      <point x="166" y="212"/>
      <point x="131" y="156" type="curve" smooth="yes"/>
      <point x="86" y="83"/>
      <point x="25" y="28"/>
      <point x="-16" y="28" type="curve" smooth="yes"/>
      <point x="-39" y="28" type="line"/>
    </contour>
    <contour>
      <point x="642" y="200" type="curve"/>
      <point x="665" y="200" type="line"/>
      <point x="678" y="271"/>
      <point x="701" y="371"/>
      <point x="721" y="442" type="curve"/>
      <point x="697" y="442" type="line"/>
      <point x="683" y="379"/>
      <point x="650" y="334"/>
      <point x="619" y="334" type="curve" smooth="yes"/>
      <point x="263" y="334" type="line"/>
      <point x="255" y="304" type="line"/>
      <point x="308" y="304"/>
      <point x="591" y="304"/>
      <point x="612" y="304" type="curve" smooth="yes"/>
      <point x="643" y="304"/>
      <point x="656" y="261"/>
    </contour>
  </outline>
</glyph>
<glyph name="OE" format="2">
  <advance width="983"/>
  <unicode hex="0152"/>
  <outline>
    <contour>
      <point x="277" y="-11" type="curve" smooth="yes"/>
      <point x="452" y="-11"/>
      <point x="609" y="136"/>
      <point x="658" y="345" type="curve" smooth="yes"/>
      <point x="708" y="564"/>
      <point x="621" y="719"/>
      <point x="448" y="719" type="curve" smooth="yes"/>
      <point x="278" y="719"/>
      <point x="122" y="564"/>
      <point x="71" y="345" type="curve" smooth="yes"/>
      <point x="23" y="136"/>
      <point x="108" y="-11"/>
    </contour>
    <contour>
      <point x="298" y="19" type="curve"/>
      <point x="185" y="19"/>
      <point x="141" y="171"/>
      <point x="190" y="385" type="curve" smooth="yes"/>
      <point x="231" y="563"/>
      <point x="332" y="689"/>
      <point x="435" y="689" type="curve" smooth="yes"/>
      <point x="547" y="689"/>
      <point x="591" y="530"/>
      <point x="539" y="306" type="curve" smooth="yes"/>
      <point x="500" y="138"/>
      <point x="400" y="19"/>
    </contour>
    <contour>
      <point x="801" y="200" type="curve"/>
      <point x="824" y="200" type="line"/>
      <point x="838" y="277"/>
      <point x="863" y="385"/>
      <point x="884" y="462" type="curve"/>
      <point x="861" y="462" type="line"/>
      <point x="846" y="399"/>
      <point x="813" y="354"/>
      <point x="782" y="354" type="curve" smooth="yes"/>
      <point x="604" y="354" type="line"/>
      <point x="600" y="304" type="line"/>
      <point x="654" y="304"/>
      <point x="758" y="304"/>
      <point x="779" y="304" type="curve" smooth="yes"/>
      <point x="806" y="304"/>
      <point x="815" y="261"/>
    </contour>
    <contour>
      <point x="429" y="54" type="curve"/>
      <point x="357" y="-1" type="line"/>
      <point x="853" y="-1" type="line"/>
      <point x="958" y="163" type="line"/>
      <point x="940" y="178" type="line"/>
      <point x="886" y="105"/>
      <point x="820" y="54"/>
      <point x="780" y="54" type="curve" smooth="yes"/>
      <point x="770" y="54"/>
      <point x="471" y="54"/>
    </contour>
    <contour>
      <point x="519" y="700" type="curve"/>
      <point x="532" y="645" type="line"/>
      <point x="564" y="645"/>
      <point x="882" y="645"/>
      <point x="889" y="645" type="curve" smooth="yes"/>
      <point x="941" y="645"/>
      <point x="968" y="598"/>
      <point x="952" y="531" type="curve"/>
      <point x="976" y="531" type="line"/>
      <point x="1015" y="700" type="line"/>
      <point x="958" y="700"/>
      <point x="563" y="700"/>
    </contour>
  </outline>
</glyph>
<glyph name="uni0308" format="2">
  <advance width="0"/>
  <unicode hex="0308"/>
  <anchor x="210" y="435" name="_top"/>
  <anchor x="287" y="703" name="top"/>
  <outline>
    <contour>
      <point x="192" y="591" type="curve" smooth="yes"/>
      <point x="217" y="591"/>
      <point x="237" y="616"/>
      <point x="237" y="647" type="curve" smooth="yes"/>
      <point x="237" y="678"/>
      <point x="217" y="703"/>
      <point x="192" y="703" type="curve" smooth="yes"/>
      <point x="166" y="703"/>
      <point x="146" y="678"/>
      <point x="146" y="647" type="curve" smooth="yes"/>
      <point x="146" y="616"/>
      <point x="166" y="591"/>
    </contour>
    <contour>
      <point x="348" y="591" type="curve" smooth="yes"/>
      <point x="374" y="591"/>
      <point x="394" y="616"/>
      <point x="394" y="647" type="curve" smooth="yes"/>
      <point x="394" y="678"/>
      <point x="374" y="703"/>
      <point x="348" y="703" type="curve" smooth="yes"/>
      <point x="323" y="703"/>
      <point x="303" y="678"/>
      <point x="303" y="647" type="curve" smooth="yes"/>
      <point x="303" y="616"/>
      <point x="323" y="591"/>
    </contour>
  </outline>
</glyph>
<glyph name="N.alt" format="2">
  <advance width="781"/>
  <outline>
    <contour>
      <point x="292" y="609" type="curve" smooth="yes"/>
      <point x="544" y="-1" type="line"/>
      <point x="611" y="-1" type="line"/>
      <point x="753" y="614" type="line" smooth="yes"/>
      <point x="766" y="672"/>
      <point x="821" y="672"/>
      <point x="842" y="672" type="curve" smooth="yes"/>
      <point x="863" y="672"/>
      <point x="887" y="672"/>
      <point x="910" y="672" type="curve"/>
      <point x="917" y="700" type="line"/>
      <point x="555" y="700" type="line"/>
      <point x="548" y="672" type="line"/>
      <point x="646" y="672" type="line" smooth="yes"/>
      <point x="664" y="672"/>
      <point x="700" y="647"/>
      <point x="693" y="616" type="curve" smooth="yes"/>
      <point x="686" y="585"/>
      <point x="618" y="289"/>
      <point x="579" y="119" type="curve"/>
      <point x="598" y="101" type="line"/>
      <point x="341" y="702" type="line"/>
      <point x="136" y="702" type="line"/>
      <point x="130" y="674" type="line"/>
      <point x="234" y="674" type="line" smooth="yes"/>
      <point x="261" y="674"/>
      <point x="282" y="632"/>
    </contour>
    <contour>
      <point x="-56" y="4" type="line"/>
      <point x="346" y="4" type="line"/>
      <point x="352" y="28" type="line"/>
      <point x="315" y="28"/>
      <point x="273" y="28"/>
      <point x="240" y="28" type="curve" smooth="yes"/>
      <point x="207" y="28"/>
      <point x="196" y="66"/>
      <point x="206" y="108" type="curve" smooth="yes"/>
      <point x="326" y="627" type="line"/>
      <point x="288" y="702" type="line"/>
      <point x="283" y="702" type="line"/>
      <point x="269" y="640"/>
      <point x="145" y="105"/>
      <point x="143" y="94" type="curve" smooth="yes"/>
      <point x="139" y="77"/>
      <point x="116" y="32"/>
      <point x="87" y="32" type="curve" smooth="yes"/>
      <point x="-50" y="32" type="line"/>
    </contour>
  </outline>
</glyph>
<glyph name="_source" format="2">
  <advance width="19988"/>
  <outline>
    <contour>
      <point x="-1492" y="-210" type="curve" smooth="yes"/>
      <point x="-1421" y="-210"/>
      <point x="-1371" y="-117"/>
      <point x="-1371" y="15" type="curve" smooth="yes"/>
      <point x="-1371" y="109"/>
      <point x="-1381" y="459"/>
      <point x="-1381" y="523" type="curve" smooth="yes"/>
      <point x="-1381" y="614"/>
      <point x="-1362" y="678"/>
      <point x="-1335" y="678" type="curve" smooth="yes"/>
      <point x="-1286" y="678"/>
      <point x="-1252" y="649"/>
      <point x="-1252" y="608" type="curve"/>
      <point x="-1179" y="614" type="line"/>
      <point x="-1179" y="680"/>
      <point x="-1229" y="726"/>
      <point x="-1299" y="726" type="curve" smooth="yes"/>
      <point x="-1393" y="726"/>
      <point x="-1459" y="636"/>
      <point x="-1459" y="509" type="curve" smooth="yes"/>
      <point x="-1459" y="421"/>
      <point x="-1449" y="14"/>
      <point x="-1449" y="-19" type="curve" smooth="yes"/>
      <point x="-1449" y="-97"/>
      <point x="-1459" y="-153"/>
      <point x="-1474" y="-153" type="curve" smooth="yes"/>
      <point x="-1507" y="-153"/>
      <point x="-1531" y="-132"/>
      <point x="-1531" y="-102" type="curve"/>
      <point x="-1597" y="-99" type="line"/>
      <point x="-1597" y="-164"/>
      <point x="-1553" y="-210"/>
    </contour>
    <contour>
      <point x="-8336" y="-3" type="curve" smooth="yes"/>
      <point x="-8301" y="-3"/>
      <point x="-8226" y="77"/>
      <point x="-8155" y="190" type="curve"/>
      <point x="-8177" y="208" type="line"/>
      <point x="-8225" y="136"/>
      <point x="-8276" y="85"/>
      <point x="-8299" y="85" type="curve" smooth="yes"/>
      <point x="-8318" y="85"/>
      <point x="-8331" y="127"/>
      <point x="-8331" y="186" type="curve" smooth="yes"/>
      <point x="-8331" y="348"/>
      <point x="-8280" y="463"/>
      <point x="-8207" y="463" type="curve" smooth="yes"/>
      <point x="-8193" y="463"/>
      <point x="-8164" y="451"/>
      <point x="-8137" y="435" type="curve"/>
      <point x="-8114" y="484" type="line"/>
      <point x="-8141" y="501"/>
      <point x="-8174" y="513"/>
      <point x="-8194" y="513" type="curve" smooth="yes"/>
      <point x="-8326" y="513"/>
      <point x="-8420" y="363"/>
      <point x="-8420" y="152" type="curve" smooth="yes"/>
      <point x="-8420" y="61"/>
      <point x="-8385" y="-3"/>
    </contour>
    <contour>
      <point x="-8136" y="-6" type="curve" smooth="yes"/>
      <point x="-8072" y="-6"/>
      <point x="-8017" y="88"/>
      <point x="-8004" y="220" type="curve"/>
      <point x="-8034" y="220" type="line"/>
      <point x="-8041" y="142"/>
      <point x="-8067" y="87"/>
      <point x="-8096" y="87" type="curve" smooth="yes"/>
      <point x="-8108" y="87"/>
      <point x="-8114" y="128"/>
      <point x="-8110" y="187" type="curve" smooth="yes"/>
      <point x="-8106" y="248"/>
      <point x="-8094" y="573"/>
      <point x="-8083" y="701" type="curve"/>
      <point x="-8158" y="701" type="line"/>
      <point x="-8189" y="145" type="line" smooth="yes"/>
      <point x="-8195" y="57"/>
      <point x="-8173" y="-6"/>
    </contour>
    <contour>
      <point x="-8139" y="610" type="curve"/>
      <point x="-8158" y="701" type="line"/>
      <point x="-8272" y="702" type="line"/>
      <point x="-8262" y="648" type="line"/>
      <point x="-8208" y="651"/>
      <point x="-8157" y="635"/>
    </contour>
    <contour>
      <point x="-7636" y="-3" type="curve" smooth="yes"/>
      <point x="-7601" y="-3"/>
      <point x="-7526" y="77"/>
      <point x="-7455" y="190" type="curve"/>
      <point x="-7477" y="208" type="line"/>
      <point x="-7525" y="136"/>
      <point x="-7576" y="85"/>
      <point x="-7599" y="85" type="curve" smooth="yes"/>
      <point x="-7618" y="85"/>
      <point x="-7631" y="127"/>
      <point x="-7631" y="186" type="curve" smooth="yes"/>
      <point x="-7631" y="348"/>
      <point x="-7580" y="463"/>
      <point x="-7507" y="463" type="curve" smooth="yes"/>
      <point x="-7493" y="463"/>
      <point x="-7464" y="451"/>
      <point x="-7437" y="435" type="curve"/>
      <point x="-7414" y="484" type="line"/>
      <point x="-7441" y="501"/>
      <point x="-7474" y="513"/>
      <point x="-7494" y="513" type="curve" smooth="yes"/>
      <point x="-7626" y="513"/>
      <point x="-7720" y="363"/>
      <point x="-7720" y="152" type="curve" smooth="yes"/>
      <point x="-7720" y="61"/>
      <point x="-7685" y="-3"/>
    </contour>
    <contour>
      <point x="-7205" y="0" type="curve"/>
      <point x="-7130" y="0" type="line"/>
      <point x="-7154" y="-357"/>
      <point x="-7142" y="-206"/>
      <point x="-7101" y="365" type="curve" smooth="yes"/>
      <point x="-7095" y="453"/>
      <point x="-7117" y="516"/>
      <point x="-7154" y="516" type="curve" smooth="yes"/>
      <point x="-7218" y="516"/>
      <point x="-7273" y="422"/>
      <point x="-7286" y="290" type="curve"/>
      <point x="-7256" y="290" type="line"/>
      <point x="-7249" y="368"/>
      <point x="-7223" y="423"/>
      <point x="-7194" y="423" type="curve" smooth="yes"/>
      <point x="-7182" y="423"/>
      <point x="-7176" y="382"/>
      <point x="-7180" y="323" type="curve" smooth="yes"/>
      <point x="-7183" y="275"/>
      <point x="-7193" y="142"/>
    </contour>
    <contour>
      <point x="-7436" y="0" type="curve" smooth="yes"/>
      <point x="-7372" y="0"/>
      <point x="-7317" y="94"/>
      <point x="-7304" y="226" type="curve"/>
      <point x="-7334" y="226" type="line"/>
      <point x="-7341" y="148"/>
      <point x="-7367" y="93"/>
      <point x="-7396" y="93" type="curve" smooth="yes"/>
      <point x="-7408" y="93"/>
      <point x="-7414" y="134"/>
      <point x="-7410" y="193" type="curve" smooth="yes"/>
      <point x="-7406" y="254"/>
      <point x="-7396" y="388"/>
      <point x="-7385" y="516" type="curve"/>
      <point x="-7460" y="516" type="line"/>
      <point x="-7436" y="873"/>
      <point x="-7448" y="722"/>
      <point x="-7489" y="151" type="curve" smooth="yes"/>
      <point x="-7495" y="63"/>
      <point x="-7473" y="0"/>
    </contour>
    <contour>
      <point x="-6967" y="308" type="curve" smooth="yes"/>
      <point x="-6993" y="0" type="line"/>
      <point x="-6919" y="0" type="line"/>
      <point x="-6916" y="45"/>
      <point x="-6889" y="298"/>
      <point x="-6885" y="359" type="curve" smooth="yes"/>
      <point x="-6879" y="451"/>
      <point x="-6912" y="516"/>
      <point x="-6964" y="516" type="curve" smooth="yes"/>
      <point x="-7021" y="516"/>
      <point x="-7088" y="422"/>
      <point x="-7127" y="288" type="curve"/>
      <point x="-7114" y="243" type="line"/>
      <point x="-7087" y="348"/>
      <point x="-7041" y="422"/>
      <point x="-7002" y="422" type="curve" smooth="yes"/>
      <point x="-6978" y="422"/>
      <point x="-6963" y="375"/>
    </contour>
    <contour>
      <point x="-6704" y="-8" type="curve" smooth="yes"/>
      <point x="-6640" y="-8"/>
      <point x="-6585" y="86"/>
      <point x="-6572" y="218" type="curve"/>
      <point x="-6602" y="218" type="line"/>
      <point x="-6609" y="140"/>
      <point x="-6635" y="85"/>
      <point x="-6664" y="85" type="curve" smooth="yes"/>
      <point x="-6676" y="85"/>
      <point x="-6682" y="126"/>
      <point x="-6678" y="185" type="curve" smooth="yes"/>
      <point x="-6666" y="359" type="line" smooth="yes"/>
      <point x="-6660" y="451"/>
      <point x="-6693" y="516"/>
      <point x="-6745" y="516" type="curve" smooth="yes"/>
      <point x="-6802" y="516"/>
      <point x="-6869" y="422"/>
      <point x="-6908" y="288" type="curve"/>
      <point x="-6895" y="243" type="line"/>
      <point x="-6868" y="348"/>
      <point x="-6822" y="422"/>
      <point x="-6783" y="422" type="curve" smooth="yes"/>
      <point x="-6759" y="422"/>
      <point x="-6744" y="375"/>
      <point x="-6748" y="308" type="curve" smooth="yes"/>
      <point x="-6757" y="168"/>
      <point x="-6761" y="100"/>
      <point x="-6757" y="143" type="curve"/>
      <point x="-6763" y="55"/>
      <point x="-6741" y="-8"/>
    </contour>
    <contour>
      <point x="-6411" y="-9" type="curve" smooth="yes"/>
      <point x="-6337" y="-9"/>
      <point x="-6264" y="58"/>
      <point x="-6236" y="152" type="curve"/>
      <point x="-6275" y="176" type="line"/>
      <point x="-6302" y="108"/>
      <point x="-6349" y="60"/>
      <point x="-6389" y="60" type="curve" smooth="yes"/>
      <point x="-6430" y="60"/>
      <point x="-6456" y="118"/>
      <point x="-6452" y="199" type="curve" smooth="yes"/>
      <point x="-6444" y="353"/>
      <point x="-6414" y="459"/>
      <point x="-6380" y="454" type="curve" smooth="yes"/>
      <point x="-6354" y="451"/>
      <point x="-6336" y="425"/>
      <point x="-6336" y="391" type="curve" smooth="yes"/>
      <point x="-6336" y="315"/>
      <point x="-6399" y="261"/>
      <point x="-6487" y="261" type="curve"/>
      <point x="-6496" y="202" type="line"/>
      <point x="-6350" y="235"/>
      <point x="-6246" y="326"/>
      <point x="-6246" y="421" type="curve" smooth="yes"/>
      <point x="-6246" y="477"/>
      <point x="-6290" y="517"/>
      <point x="-6353" y="517" type="curve" smooth="yes"/>
      <point x="-6446" y="517"/>
      <point x="-6524" y="369"/>
      <point x="-6542" y="160" type="curve" smooth="yes"/>
      <point x="-6550" y="61"/>
      <point x="-6496" y="-9"/>
    </contour>
    <contour>
      <point x="-6125" y="0" type="curve"/>
      <point x="-6050" y="0" type="line"/>
      <point x="-6074" y="-357"/>
      <point x="-6062" y="-206"/>
      <point x="-6021" y="365" type="curve" smooth="yes"/>
      <point x="-6015" y="453"/>
      <point x="-6037" y="516"/>
      <point x="-6074" y="516" type="curve" smooth="yes"/>
      <point x="-6138" y="516"/>
      <point x="-6193" y="422"/>
      <point x="-6206" y="290" type="curve"/>
      <point x="-6176" y="290" type="line"/>
      <point x="-6169" y="368"/>
      <point x="-6143" y="423"/>
      <point x="-6114" y="423" type="curve" smooth="yes"/>
      <point x="-6102" y="423"/>
      <point x="-6096" y="382"/>
      <point x="-6100" y="323" type="curve" smooth="yes"/>
      <point x="-6103" y="275"/>
      <point x="-6113" y="142"/>
    </contour>
    <contour>
      <point x="-5843" y="-8" type="curve" smooth="yes"/>
      <point x="-5779" y="-8"/>
      <point x="-5724" y="86"/>
      <point x="-5711" y="218" type="curve"/>
      <point x="-5741" y="218" type="line"/>
      <point x="-5748" y="140"/>
      <point x="-5774" y="85"/>
      <point x="-5803" y="85" type="curve" smooth="yes"/>
      <point x="-5815" y="85"/>
      <point x="-5821" y="126"/>
      <point x="-5817" y="185" type="curve" smooth="yes"/>
      <point x="-5805" y="359" type="line" smooth="yes"/>
      <point x="-5799" y="451"/>
      <point x="-5832" y="516"/>
      <point x="-5884" y="516" type="curve" smooth="yes"/>
      <point x="-5941" y="516"/>
      <point x="-6008" y="422"/>
      <point x="-6047" y="288" type="curve"/>
      <point x="-6034" y="243" type="line"/>
      <point x="-6007" y="348"/>
      <point x="-5961" y="422"/>
      <point x="-5922" y="422" type="curve" smooth="yes"/>
      <point x="-5898" y="422"/>
      <point x="-5883" y="375"/>
      <point x="-5887" y="308" type="curve" smooth="yes"/>
      <point x="-5896" y="168"/>
      <point x="-5900" y="100"/>
      <point x="-5896" y="143" type="curve"/>
      <point x="-5902" y="55"/>
      <point x="-5880" y="-8"/>
    </contour>
    <contour>
      <point x="-5489" y="-6" type="curve" smooth="yes"/>
      <point x="-5425" y="-6"/>
      <point x="-5370" y="88"/>
      <point x="-5357" y="220" type="curve"/>
      <point x="-5387" y="220" type="line"/>
      <point x="-5394" y="142"/>
      <point x="-5420" y="87"/>
      <point x="-5449" y="87" type="curve" smooth="yes"/>
      <point x="-5461" y="87"/>
      <point x="-5467" y="128"/>
      <point x="-5463" y="187" type="curve" smooth="yes"/>
      <point x="-5459" y="248"/>
      <point x="-5447" y="573"/>
      <point x="-5436" y="701" type="curve"/>
      <point x="-5511" y="701" type="line"/>
      <point x="-5542" y="145" type="line" smooth="yes"/>
      <point x="-5548" y="57"/>
      <point x="-5526" y="-6"/>
    </contour>
    <contour>
      <point x="-5233" y="-239" type="line"/>
      <point x="-4944" y="-239" type="line"/>
      <point x="-4944" y="-211" type="line"/>
      <point x="-5058" y="-211" type="line"/>
      <point x="-5101" y="558" type="line"/>
      <point x="-5165" y="552" type="line"/>
      <point x="-5137" y="-211" type="line"/>
      <point x="-5234" y="-211" type="line"/>
    </contour>
    <contour>
      <point x="-5492" y="610" type="curve"/>
      <point x="-5511" y="701" type="line"/>
      <point x="-5625" y="702" type="line"/>
      <point x="-5615" y="648" type="line"/>
      <point x="-5561" y="651"/>
      <point x="-5510" y="635"/>
    </contour>
    <contour>
      <point x="-5075" y="52" type="curve"/>
      <point x="-5074" y="19" type="line"/>
      <point x="-4934" y="-40"/>
      <point x="-4835" y="70"/>
      <point x="-4835" y="285" type="curve" smooth="yes"/>
      <point x="-4835" y="396"/>
      <point x="-4916" y="474"/>
      <point x="-5031" y="474" type="curve" smooth="yes"/>
      <point x="-5117" y="474"/>
      <point x="-5221" y="399"/>
      <point x="-5283" y="293" type="curve"/>
      <point x="-5258" y="267" type="line"/>
      <point x="-5200" y="359"/>
      <point x="-5118" y="424"/>
      <point x="-5059" y="424" type="curve" smooth="yes"/>
      <point x="-4981" y="424"/>
      <point x="-4925" y="354"/>
      <point x="-4925" y="255" type="curve" smooth="yes"/>
      <point x="-4925" y="82"/>
      <point x="-4987" y="-2"/>
    </contour>
    <contour>
      <point x="-4727" y="0" type="curve"/>
      <point x="-4652" y="0" type="line"/>
      <point x="-4676" y="-357"/>
      <point x="-4664" y="-206"/>
      <point x="-4623" y="365" type="curve" smooth="yes"/>
      <point x="-4617" y="453"/>
      <point x="-4639" y="516"/>
      <point x="-4676" y="516" type="curve" smooth="yes"/>
      <point x="-4740" y="516"/>
      <point x="-4795" y="422"/>
      <point x="-4808" y="290" type="curve"/>
      <point x="-4778" y="290" type="line"/>
      <point x="-4771" y="368"/>
      <point x="-4745" y="423"/>
      <point x="-4716" y="423" type="curve" smooth="yes"/>
      <point x="-4704" y="423"/>
      <point x="-4698" y="382"/>
      <point x="-4702" y="323" type="curve" smooth="yes"/>
      <point x="-4706" y="262"/>
      <point x="-4716" y="128"/>
    </contour>
    <contour>
      <point x="-4650" y="167" type="line"/>
      <point x="-4617" y="303"/>
      <point x="-4567" y="399"/>
      <point x="-4529" y="399" type="curve" smooth="yes"/>
      <point x="-4503" y="399"/>
      <point x="-4469" y="382"/>
      <point x="-4448" y="359" type="curve"/>
      <point x="-4391" y="433" type="line"/>
      <point x="-4420" y="481"/>
      <point x="-4461" y="515"/>
      <point x="-4490" y="515" type="curve" smooth="yes"/>
      <point x="-4549" y="515"/>
      <point x="-4620" y="387"/>
      <point x="-4661" y="205" type="curve"/>
      <point x="-4649" y="173" type="line"/>
    </contour>
    <contour>
      <point x="-4247" y="-226" type="curve" smooth="yes"/>
      <point x="-4176" y="-226"/>
      <point x="-4126" y="-133"/>
      <point x="-4126" y="-1" type="curve" smooth="yes"/>
      <point x="-4126" y="93"/>
      <point x="-4136" y="443"/>
      <point x="-4136" y="507" type="curve" smooth="yes"/>
      <point x="-4136" y="598"/>
      <point x="-4117" y="662"/>
      <point x="-4090" y="662" type="curve" smooth="yes"/>
      <point x="-4041" y="662"/>
      <point x="-4007" y="633"/>
      <point x="-4007" y="592" type="curve"/>
      <point x="-3934" y="598" type="line"/>
      <point x="-3934" y="664"/>
      <point x="-3984" y="710"/>
      <point x="-4054" y="710" type="curve" smooth="yes"/>
      <point x="-4148" y="710"/>
      <point x="-4214" y="620"/>
      <point x="-4214" y="493" type="curve" smooth="yes"/>
      <point x="-4214" y="405"/>
      <point x="-4204" y="-2"/>
      <point x="-4204" y="-35" type="curve" smooth="yes"/>
      <point x="-4204" y="-113"/>
      <point x="-4214" y="-169"/>
      <point x="-4229" y="-169" type="curve" smooth="yes"/>
      <point x="-4262" y="-169"/>
      <point x="-4286" y="-148"/>
      <point x="-4286" y="-118" type="curve"/>
      <point x="-4352" y="-115" type="line"/>
      <point x="-4352" y="-180"/>
      <point x="-4308" y="-226"/>
    </contour>
    <contour>
      <point x="-3691" y="0" type="curve" smooth="yes"/>
      <point x="-3627" y="0"/>
      <point x="-3572" y="94"/>
      <point x="-3559" y="226" type="curve"/>
      <point x="-3589" y="226" type="line"/>
      <point x="-3596" y="148"/>
      <point x="-3622" y="93"/>
      <point x="-3651" y="93" type="curve" smooth="yes"/>
      <point x="-3663" y="93"/>
      <point x="-3669" y="134"/>
      <point x="-3665" y="193" type="curve" smooth="yes"/>
      <point x="-3640" y="599" type="line"/>
      <point x="-3715" y="599" type="line"/>
      <point x="-3746" y="137"/>
      <point x="-3758" y="-49"/>
      <point x="-3744" y="151" type="curve" smooth="yes"/>
      <point x="-3750" y="63"/>
      <point x="-3728" y="0"/>
    </contour>
    <contour>
      <point x="-3825" y="438" type="line"/>
      <point x="-3561" y="438" type="line"/>
      <point x="-3561" y="480" type="line"/>
      <point x="-3825" y="480" type="line"/>
    </contour>
    <contour>
      <point x="-3389" y="0" type="curve" smooth="yes"/>
      <point x="-3325" y="0"/>
      <point x="-3270" y="94"/>
      <point x="-3257" y="226" type="curve"/>
      <point x="-3287" y="226" type="line"/>
      <point x="-3294" y="148"/>
      <point x="-3320" y="93"/>
      <point x="-3349" y="93" type="curve" smooth="yes"/>
      <point x="-3361" y="93"/>
      <point x="-3367" y="134"/>
      <point x="-3363" y="193" type="curve" smooth="yes"/>
      <point x="-3348" y="381" type="line"/>
      <point x="-3346" y="460"/>
      <point x="-3368" y="516"/>
      <point x="-3402" y="516" type="curve" smooth="yes"/>
      <point x="-3466" y="516"/>
      <point x="-3521" y="422"/>
      <point x="-3534" y="290" type="curve"/>
      <point x="-3504" y="290" type="line"/>
      <point x="-3497" y="368"/>
      <point x="-3471" y="423"/>
      <point x="-3442" y="423" type="curve" smooth="yes"/>
      <point x="-3430" y="423"/>
      <point x="-3424" y="382"/>
      <point x="-3428" y="323" type="curve" smooth="yes"/>
      <point x="-3443" y="132" type="line"/>
      <point x="-3445" y="55"/>
      <point x="-3423" y="0"/>
    </contour>
    <contour>
      <point x="-3426" y="612" type="curve" smooth="yes"/>
      <point x="-3394" y="612"/>
      <point x="-3371" y="631"/>
      <point x="-3371" y="659" type="curve" smooth="yes"/>
      <point x="-3371" y="687"/>
      <point x="-3394" y="706"/>
      <point x="-3426" y="706" type="curve" smooth="yes"/>
      <point x="-3458" y="706"/>
      <point x="-3481" y="687"/>
      <point x="-3481" y="659" type="curve" smooth="yes"/>
      <point x="-3481" y="631"/>
      <point x="-3458" y="612"/>
    </contour>
    <contour>
      <point x="-2874" y="-8" type="curve" smooth="yes"/>
      <point x="-2781" y="-8"/>
      <point x="-2716" y="86"/>
      <point x="-2716" y="220" type="curve" smooth="yes"/>
      <point x="-2716" y="389"/>
      <point x="-2794" y="508"/>
      <point x="-2905" y="508" type="curve" smooth="yes"/>
      <point x="-2998" y="508"/>
      <point x="-3064" y="410"/>
      <point x="-3064" y="272" type="curve" smooth="yes"/>
      <point x="-3064" y="108"/>
      <point x="-2985" y="-8"/>
    </contour>
    <contour>
      <point x="-2873" y="62" type="curve" smooth="yes"/>
      <point x="-2932" y="62"/>
      <point x="-2974" y="161"/>
      <point x="-2974" y="302" type="curve" smooth="yes"/>
      <point x="-2974" y="382"/>
      <point x="-2945" y="438"/>
      <point x="-2905" y="438" type="curve" smooth="yes"/>
      <point x="-2847" y="438"/>
      <point x="-2806" y="335"/>
      <point x="-2806" y="190" type="curve" smooth="yes"/>
      <point x="-2806" y="115"/>
      <point x="-2834" y="62"/>
    </contour>
    <contour>
      <point x="-2520" y="-9" type="curve" smooth="yes"/>
      <point x="-2446" y="-9"/>
      <point x="-2373" y="58"/>
      <point x="-2345" y="152" type="curve"/>
      <point x="-2384" y="176" type="line"/>
      <point x="-2411" y="108"/>
      <point x="-2458" y="60"/>
      <point x="-2498" y="60" type="curve" smooth="yes"/>
      <point x="-2539" y="60"/>
      <point x="-2565" y="118"/>
      <point x="-2561" y="199" type="curve" smooth="yes"/>
      <point x="-2553" y="353"/>
      <point x="-2523" y="459"/>
      <point x="-2489" y="454" type="curve" smooth="yes"/>
      <point x="-2463" y="451"/>
      <point x="-2445" y="425"/>
      <point x="-2445" y="391" type="curve" smooth="yes"/>
      <point x="-2445" y="387" type="line"/>
      <point x="-2355" y="419" type="line"/>
      <point x="-2355" y="421" type="line" smooth="yes"/>
      <point x="-2355" y="477"/>
      <point x="-2399" y="517"/>
      <point x="-2462" y="517" type="curve" smooth="yes"/>
      <point x="-2555" y="517"/>
      <point x="-2633" y="369"/>
      <point x="-2651" y="160" type="curve" smooth="yes"/>
      <point x="-2659" y="61"/>
      <point x="-2605" y="-9"/>
    </contour>
    <contour>
      <point x="-1972" y="-7" type="curve" smooth="yes"/>
      <point x="-1915" y="-7"/>
      <point x="-1848" y="87"/>
      <point x="-1809" y="221" type="curve"/>
      <point x="-1822" y="266" type="line"/>
      <point x="-1850" y="155"/>
      <point x="-1905" y="77"/>
      <point x="-1954" y="77" type="curve" smooth="yes"/>
      <point x="-1973" y="77"/>
      <point x="-1979" y="128"/>
      <point x="-1969" y="201" type="curve" smooth="yes"/>
      <point x="-1961" y="264"/>
      <point x="-1953" y="333"/>
      <point x="-1950" y="366" type="curve" smooth="yes"/>
      <point x="-1944" y="454"/>
      <point x="-1966" y="517"/>
      <point x="-2003" y="517" type="curve" smooth="yes"/>
      <point x="-2067" y="517"/>
      <point x="-2122" y="423"/>
      <point x="-2135" y="291" type="curve"/>
      <point x="-2105" y="291" type="line"/>
      <point x="-2098" y="369"/>
      <point x="-2072" y="424"/>
      <point x="-2043" y="424" type="curve" smooth="yes"/>
      <point x="-2028" y="424"/>
      <point x="-2022" y="383"/>
      <point x="-2029" y="324" type="curve" smooth="yes"/>
      <point x="-2051" y="150" type="line"/>
      <point x="-2057" y="58"/>
      <point x="-2024" y="-7"/>
    </contour>
    <contour>
      <point x="-1782" y="-7" type="curve" smooth="yes"/>
      <point x="-1718" y="-7"/>
      <point x="-1663" y="87"/>
      <point x="-1650" y="219" type="curve"/>
      <point x="-1680" y="219" type="line"/>
      <point x="-1687" y="141"/>
      <point x="-1713" y="86"/>
      <point x="-1742" y="86" type="curve" smooth="yes"/>
      <point x="-1754" y="86"/>
      <point x="-1760" y="127"/>
      <point x="-1756" y="186" type="curve" smooth="yes"/>
      <point x="-1753" y="234"/>
      <point x="-1743" y="367"/>
      <point x="-1731" y="509" type="curve"/>
      <point x="-1806" y="509" type="line"/>
      <point x="-1782" y="866"/>
      <point x="-1794" y="715"/>
      <point x="-1835" y="144" type="curve" smooth="yes"/>
      <point x="-1841" y="56"/>
      <point x="-1819" y="-7"/>
    </contour>
    <contour>
      <point x="-1572" y="408" type="line"/>
      <point x="-1308" y="408" type="line"/>
      <point x="-1308" y="450" type="line"/>
      <point x="-1572" y="450" type="line"/>
    </contour>
    <contour>
      <point x="-1010" y="0" type="line"/>
      <point x="-931" y="0" type="line"/>
      <point x="-927" y="61"/>
      <point x="-917" y="573"/>
      <point x="-906" y="701" type="curve"/>
      <point x="-981" y="701" type="line"/>
    </contour>
    <contour>
      <point x="-804" y="-5" type="curve" smooth="yes"/>
      <point x="-718" y="-5"/>
      <point x="-658" y="108"/>
      <point x="-658" y="267" type="curve" smooth="yes"/>
      <point x="-658" y="373"/>
      <point x="-705" y="453"/>
      <point x="-771" y="460" type="curve" smooth="yes"/>
      <point x="-839" y="467"/>
      <point x="-919" y="354"/>
      <point x="-963" y="187" type="curve"/>
      <point x="-929" y="169" type="line"/>
      <point x="-905" y="289"/>
      <point x="-853" y="374"/>
      <point x="-803" y="374" type="curve" smooth="yes"/>
      <point x="-758" y="374"/>
      <point x="-726" y="306"/>
      <point x="-726" y="211" type="curve" smooth="yes"/>
      <point x="-726" y="114"/>
      <point x="-746" y="46"/>
      <point x="-775" y="46" type="curve" smooth="yes"/>
      <point x="-806" y="46"/>
      <point x="-841" y="63"/>
      <point x="-860" y="87" type="curve"/>
      <point x="-885" y="45" type="line"/>
      <point x="-872" y="16"/>
      <point x="-838" y="-5"/>
    </contour>
    <contour>
      <point x="-962" y="610" type="curve"/>
      <point x="-981" y="701" type="line"/>
      <point x="-1095" y="702" type="line"/>
      <point x="-1085" y="648" type="line"/>
      <point x="-1031" y="651"/>
      <point x="-980" y="635"/>
    </contour>
    <contour>
      <point x="-381" y="0" type="line"/>
      <point x="-377" y="61"/>
      <point x="-367" y="573"/>
      <point x="-356" y="701" type="curve"/>
      <point x="-431" y="701" type="line"/>
      <point x="-457" y="41" type="line"/>
    </contour>
    <contour>
      <point x="-354" y="-5" type="curve" smooth="yes"/>
      <point x="-230" y="-5"/>
      <point x="-128" y="108"/>
      <point x="-108" y="267" type="curve" smooth="yes"/>
      <point x="-95" y="372"/>
      <point x="-142" y="452"/>
      <point x="-221" y="460" type="curve" smooth="yes"/>
      <point x="-289" y="467"/>
      <point x="-369" y="354"/>
      <point x="-413" y="187" type="curve"/>
      <point x="-379" y="169" type="line"/>
      <point x="-355" y="289"/>
      <point x="-303" y="374"/>
      <point x="-253" y="374" type="curve" smooth="yes"/>
      <point x="-188" y="374"/>
      <point x="-156" y="306"/>
      <point x="-176" y="211" type="curve" smooth="yes"/>
      <point x="-196" y="114"/>
      <point x="-257" y="46"/>
      <point x="-325" y="46" type="curve" smooth="yes"/>
      <point x="-354" y="46"/>
      <point x="-389" y="70"/>
      <point x="-410" y="105" type="curve"/>
      <point x="-456" y="40" type="line"/>
      <point x="-418" y="14"/>
      <point x="-376" y="-5"/>
    </contour>
    <contour>
      <point x="-412" y="610" type="curve"/>
      <point x="-431" y="701" type="line"/>
      <point x="-545" y="702" type="line"/>
      <point x="-535" y="648" type="line"/>
      <point x="-481" y="651"/>
      <point x="-430" y="635"/>
    </contour>
    <contour>
      <point x="1045" y="-241" type="curve"/>
      <point x="1167" y="-247"/>
      <point x="1253" y="-189"/>
      <point x="1253" y="-100" type="curve" smooth="yes"/>
      <point x="1253" y="-52"/>
      <point x="1213" y="-8"/>
      <point x="1157" y="6" type="curve" smooth="yes"/>
      <point x="1047" y="35"/>
      <point x="961" y="72"/>
      <point x="961" y="88" type="curve" smooth="yes"/>
      <point x="961" y="115"/>
      <point x="980" y="139"/>
      <point x="994" y="154" type="curve"/>
      <point x="957" y="163" type="line"/>
      <point x="931" y="129"/>
      <point x="914" y="103"/>
      <point x="913" y="83" type="curve" smooth="yes"/>
      <point x="911" y="39"/>
      <point x="939" y="0"/>
      <point x="980" y="-11" type="curve" smooth="yes"/>
      <point x="1098" y="-41"/>
      <point x="1182" y="-89"/>
      <point x="1183" y="-126" type="curve" smooth="yes"/>
      <point x="1184" y="-162"/>
      <point x="1135" y="-191"/>
      <point x="1064" y="-196" type="curve" smooth="yes"/>
      <point x="946" y="-204"/>
      <point x="864" y="-158"/>
      <point x="866" y="-85" type="curve" smooth="yes"/>
      <point x="867" y="-48"/>
      <point x="915" y="-6"/>
      <point x="981" y="18" type="curve"/>
      <point x="951" y="45" type="line"/>
      <point x="846" y="9"/>
      <point x="776" y="-52"/>
      <point x="781" y="-101" type="curve" smooth="yes"/>
      <point x="789" y="-192"/>
      <point x="898" y="-250"/>
    </contour>
    <contour>
      <point x="1002" y="135" type="curve"/>
      <point x="1072" y="132"/>
      <point x="1123" y="192"/>
      <point x="1126" y="279" type="curve" smooth="yes"/>
      <point x="1129" y="399"/>
      <point x="1069" y="482"/>
      <point x="981" y="479" type="curve" smooth="yes"/>
      <point x="904" y="476"/>
      <point x="846" y="411"/>
      <point x="842" y="323" type="curve" smooth="yes"/>
      <point x="837" y="206"/>
      <point x="903" y="128"/>
    </contour>
    <contour>
      <point x="999" y="184" type="curve"/>
      <point x="953" y="182"/>
      <point x="920" y="246"/>
      <point x="920" y="339" type="curve" smooth="yes"/>
      <point x="920" y="394"/>
      <point x="939" y="434"/>
      <point x="967" y="435" type="curve" smooth="yes"/>
      <point x="1013" y="437"/>
      <point x="1046" y="366"/>
      <point x="1046" y="264" type="curve" smooth="yes"/>
      <point x="1046" y="215"/>
      <point x="1027" y="182"/>
    </contour>
    <contour>
      <point x="1052" y="404" type="curve"/>
      <point x="1079" y="377" type="line"/>
      <point x="1099" y="397"/>
      <point x="1128" y="413"/>
      <point x="1149" y="415" type="curve" smooth="yes"/>
      <point x="1166" y="416"/>
      <point x="1190" y="405"/>
      <point x="1206" y="389" type="curve"/>
      <point x="1228" y="411" type="line"/>
      <point x="1208" y="454"/>
      <point x="1180" y="484"/>
      <point x="1160" y="484" type="curve" smooth="yes"/>
      <point x="1114" y="484"/>
      <point x="1069" y="451"/>
    </contour>
    <contour>
      <point x="1397" y="-259" type="curve" smooth="yes"/>
      <point x="1457" y="-259"/>
      <point x="1510" y="-152"/>
      <point x="1522" y="0" type="curve" smooth="yes"/>
      <point x="1549" y="346" type="line" smooth="yes"/>
      <point x="1556" y="434"/>
      <point x="1533" y="497"/>
      <point x="1496" y="497" type="curve" smooth="yes"/>
      <point x="1432" y="497"/>
      <point x="1377" y="403"/>
      <point x="1364" y="271" type="curve"/>
      <point x="1394" y="271" type="line"/>
      <point x="1401" y="349"/>
      <point x="1427" y="404"/>
      <point x="1456" y="404" type="curve" smooth="yes"/>
      <point x="1468" y="404"/>
      <point x="1474" y="363"/>
      <point x="1470" y="304" type="curve" smooth="yes"/>
      <point x="1467" y="256"/>
      <point x="1459" y="142"/>
      <point x="1447" y="0" type="curve" smooth="yes"/>
      <point x="1437" y="-126"/>
      <point x="1425" y="-215"/>
      <point x="1417" y="-215" type="curve" smooth="yes"/>
      <point x="1395" y="-215"/>
      <point x="1376" y="-196"/>
      <point x="1372" y="-168" type="curve"/>
      <point x="1301" y="-171" type="line"/>
      <point x="1318" y="-223"/>
      <point x="1357" y="-259"/>
    </contour>
    <contour>
      <point x="1479" y="612" type="curve" smooth="yes"/>
      <point x="1511" y="612"/>
      <point x="1534" y="631"/>
      <point x="1534" y="659" type="curve" smooth="yes"/>
      <point x="1534" y="687"/>
      <point x="1511" y="706"/>
      <point x="1479" y="706" type="curve" smooth="yes"/>
      <point x="1447" y="706"/>
      <point x="1424" y="687"/>
      <point x="1424" y="659" type="curve" smooth="yes"/>
      <point x="1424" y="631"/>
      <point x="1447" y="612"/>
    </contour>
    <contour>
      <point x="1653" y="385" type="curve" smooth="yes"/>
      <point x="1641" y="316" type="line"/>
      <point x="1690" y="323" type="line"/>
      <point x="1698" y="369" type="line" smooth="yes"/>
      <point x="1701" y="386"/>
      <point x="1722" y="398"/>
      <point x="1749" y="398" type="curve" smooth="yes"/>
      <point x="1777" y="398"/>
      <point x="1797" y="375"/>
      <point x="1797" y="342" type="curve" smooth="yes"/>
      <point x="1797" y="309"/>
      <point x="1760" y="219"/>
      <point x="1760" y="179" type="curve" smooth="yes"/>
      <point x="1760" y="72"/>
      <point x="1817" y="-4"/>
      <point x="1898" y="-4" type="curve" smooth="yes"/>
      <point x="1988" y="-4"/>
      <point x="2052" y="110"/>
      <point x="2052" y="271" type="curve" smooth="yes"/>
      <point x="2052" y="405"/>
      <point x="2008" y="500"/>
      <point x="1945" y="500" type="curve" smooth="yes"/>
      <point x="1916" y="500"/>
      <point x="1896" y="475"/>
      <point x="1896" y="440" type="curve" smooth="yes"/>
      <point x="1896" y="413"/>
      <point x="1907" y="394"/>
      <point x="1923" y="394" type="curve" smooth="yes"/>
      <point x="1976" y="394"/>
      <point x="2013" y="321"/>
      <point x="2013" y="219" type="curve" smooth="yes"/>
      <point x="2013" y="149"/>
      <point x="1971" y="100"/>
      <point x="1911" y="100" type="curve" smooth="yes"/>
      <point x="1862" y="100"/>
      <point x="1827" y="166"/>
      <point x="1827" y="259" type="curve" smooth="yes"/>
      <point x="1827" y="355"/>
      <point x="1862" y="409"/>
      <point x="1862" y="454" type="curve" smooth="yes"/>
      <point x="1862" y="481"/>
      <point x="1839" y="500"/>
      <point x="1806" y="500" type="curve" smooth="yes"/>
      <point x="1728" y="500"/>
      <point x="1664" y="452"/>
    </contour>
    <contour>
      <point x="3376" y="-105" type="curve" smooth="yes"/>
      <point x="3572" y="-105"/>
      <point x="3722" y="20"/>
      <point x="3722" y="195" type="curve" smooth="yes"/>
      <point x="3722" y="259"/>
      <point x="3688" y="356"/>
      <point x="3641" y="431" type="curve"/>
      <point x="3571" y="437" type="line"/>
      <point x="3631" y="355"/>
      <point x="3672" y="250"/>
      <point x="3672" y="174" type="curve" smooth="yes"/>
      <point x="3672" y="43"/>
      <point x="3577" y="-29"/>
      <point x="3429" y="-29" type="curve"/>
      <point x="3190" y="-29"/>
      <point x="3023" y="95"/>
      <point x="3023" y="279" type="curve" smooth="yes"/>
      <point x="3023" y="353"/>
      <point x="3065" y="385"/>
      <point x="3125" y="385" type="curve" smooth="yes"/>
      <point x="3174" y="385"/>
      <point x="3208" y="372"/>
      <point x="3208" y="353" type="curve" smooth="yes"/>
      <point x="3208" y="331"/>
      <point x="3178" y="315"/>
      <point x="3136" y="315" type="curve" smooth="yes"/>
      <point x="3051" y="315"/>
      <point x="2991" y="422"/>
      <point x="2991" y="573" type="curve" smooth="yes"/>
      <point x="2991" y="644"/>
      <point x="3032" y="694"/>
      <point x="3091" y="694" type="curve" smooth="yes"/>
      <point x="3154" y="694"/>
      <point x="3212" y="658"/>
      <point x="3230" y="608" type="curve"/>
      <point x="3326" y="652" type="line"/>
      <point x="3308" y="715"/>
      <point x="3249" y="759"/>
      <point x="3184" y="759" type="curve" smooth="yes"/>
      <point x="3033" y="759"/>
      <point x="2927" y="668"/>
      <point x="2927" y="540" type="curve" smooth="yes"/>
      <point x="2927" y="383"/>
      <point x="3005" y="272"/>
      <point x="3116" y="272" type="curve" smooth="yes"/>
      <point x="3190" y="272"/>
      <point x="3254" y="325"/>
      <point x="3254" y="389" type="curve" smooth="yes"/>
      <point x="3254" y="425"/>
      <point x="3218" y="450"/>
      <point x="3166" y="450" type="curve" smooth="yes"/>
      <point x="3058" y="450"/>
      <point x="2959" y="347"/>
      <point x="2959" y="215" type="curve" smooth="yes"/>
      <point x="2959" y="28"/>
      <point x="3132" y="-105"/>
    </contour>
    <contour>
      <point x="3478" y="242" type="curve" smooth="yes"/>
      <point x="3541" y="350" type="line"/>
      <point x="3445" y="358"/>
      <point x="3377" y="381"/>
      <point x="3377" y="405" type="curve" smooth="yes"/>
      <point x="3377" y="433"/>
      <point x="3403" y="453"/>
      <point x="3439" y="453" type="curve" smooth="yes"/>
      <point x="3472" y="453"/>
      <point x="3694" y="386"/>
      <point x="3736" y="386" type="curve" smooth="yes"/>
      <point x="3788" y="386"/>
      <point x="3824" y="463"/>
      <point x="3824" y="573" type="curve" smooth="yes"/>
      <point x="3824" y="666"/>
      <point x="3753" y="732"/>
      <point x="3652" y="732" type="curve"/>
      <point x="3568" y="610" type="line"/>
      <point x="3580" y="612"/>
      <point x="3597" y="613"/>
      <point x="3609" y="613" type="curve" smooth="yes"/>
      <point x="3709" y="613"/>
      <point x="3779" y="579"/>
      <point x="3779" y="531" type="curve" smooth="yes"/>
      <point x="3779" y="484"/>
      <point x="3759" y="451"/>
      <point x="3731" y="451" type="curve" smooth="yes"/>
      <point x="3709" y="451"/>
      <point x="3536" y="541"/>
      <point x="3502" y="541" type="curve" smooth="yes"/>
      <point x="3402" y="541"/>
      <point x="3332" y="475"/>
      <point x="3332" y="381" type="curve" smooth="yes"/>
      <point x="3332" y="315"/>
      <point x="3392" y="257"/>
    </contour>
    <contour>
      <point x="2309" y="113" type="curve" smooth="yes"/>
      <point x="2309" y="45"/>
      <point x="2353" y="-3"/>
      <point x="2414" y="-3" type="curve" smooth="yes"/>
      <point x="2501" y="-3"/>
      <point x="2563" y="51"/>
      <point x="2563" y="128" type="curve" smooth="yes"/>
      <point x="2563" y="313"/>
      <point x="2405" y="281"/>
      <point x="2405" y="407" type="curve" smooth="yes"/>
      <point x="2405" y="448"/>
      <point x="2422" y="477"/>
      <point x="2446" y="477" type="curve" smooth="yes"/>
      <point x="2477" y="477"/>
      <point x="2499" y="452"/>
      <point x="2499" y="416" type="curve" smooth="yes"/>
      <point x="2499" y="404"/>
      <point x="2507" y="396"/>
      <point x="2518" y="396" type="curve" smooth="yes"/>
      <point x="2551" y="396"/>
      <point x="2574" y="408"/>
      <point x="2574" y="424" type="curve" smooth="yes"/>
      <point x="2574" y="473"/>
      <point x="2527" y="507"/>
      <point x="2461" y="507" type="curve" smooth="yes"/>
      <point x="2381" y="507"/>
      <point x="2325" y="453"/>
      <point x="2325" y="377" type="curve" smooth="yes"/>
      <point x="2325" y="193"/>
      <point x="2483" y="215"/>
      <point x="2483" y="98" type="curve" smooth="yes"/>
      <point x="2483" y="56"/>
      <point x="2460" y="27"/>
      <point x="2428" y="27" type="curve" smooth="yes"/>
      <point x="2400" y="27"/>
      <point x="2381" y="64"/>
      <point x="2381" y="116" type="curve" smooth="yes"/>
      <point x="2381" y="128"/>
      <point x="2372" y="137"/>
      <point x="2360" y="137" type="curve" smooth="yes"/>
      <point x="2330" y="137"/>
      <point x="2309" y="127"/>
    </contour>
    <contour>
      <point x="3903" y="-3" type="curve" smooth="yes"/>
      <point x="3985" y="-3"/>
      <point x="4162" y="419"/>
      <point x="4205" y="419" type="curve" smooth="yes"/>
      <point x="4236" y="419"/>
      <point x="4264" y="404"/>
      <point x="4273" y="383" type="curve"/>
      <point x="4304" y="452" type="line"/>
      <point x="4279" y="485"/>
      <point x="4251" y="508"/>
      <point x="4235" y="508" type="curve" smooth="yes"/>
      <point x="4175" y="508"/>
      <point x="3968" y="91"/>
      <point x="3941" y="91" type="curve" smooth="yes"/>
      <point x="3924" y="91"/>
      <point x="3902" y="108"/>
      <point x="3887" y="132" type="curve"/>
      <point x="3840" y="77" type="line"/>
      <point x="3865" y="30"/>
      <point x="3891" y="-3"/>
    </contour>
    <contour>
      <point x="4181" y="-3" type="curve" smooth="yes"/>
      <point x="4216" y="-3"/>
      <point x="4259" y="30"/>
      <point x="4284" y="77" type="curve"/>
      <point x="4257" y="92" type="line"/>
      <point x="4242" y="68"/>
      <point x="4220" y="51"/>
      <point x="4203" y="51" type="curve" smooth="yes"/>
      <point x="4176" y="51"/>
      <point x="4029" y="508"/>
      <point x="3969" y="508" type="curve" smooth="yes"/>
      <point x="3932" y="508"/>
      <point x="3878" y="472"/>
      <point x="3840" y="422" type="curve"/>
      <point x="3851" y="393" type="line"/>
      <point x="3865" y="426"/>
      <point x="3897" y="449"/>
      <point x="3929" y="449" type="curve" smooth="yes"/>
      <point x="3972" y="449"/>
      <point x="4099" y="-3"/>
    </contour>
    <contour>
      <point x="4661" y="-209" type="curve" smooth="yes"/>
      <point x="4711" y="-209"/>
      <point x="4819" y="-94"/>
      <point x="4895" y="80" type="curve" smooth="yes"/>
      <point x="4943" y="189"/>
      <point x="4978" y="320"/>
      <point x="4978" y="461" type="curve" smooth="yes"/>
      <point x="4978" y="490"/>
      <point x="4959" y="510"/>
      <point x="4931" y="510" type="curve" smooth="yes"/>
      <point x="4905" y="510"/>
      <point x="4880" y="485"/>
      <point x="4905" y="452" type="curve" smooth="yes"/>
      <point x="4951" y="392"/>
      <point x="4916" y="228"/>
      <point x="4851" y="90" type="curve" smooth="yes"/>
      <point x="4797" y="-26"/>
      <point x="4761" y="-124"/>
      <point x="4659" y="-124" type="curve" smooth="yes"/>
      <point x="4641" y="-124"/>
      <point x="4637" y="-71"/>
      <point x="4618" y="-71" type="curve" smooth="yes"/>
      <point x="4591" y="-71"/>
      <point x="4572" y="-102"/>
      <point x="4572" y="-146" type="curve" smooth="yes"/>
      <point x="4572" y="-183"/>
      <point x="4609" y="-209"/>
    </contour>
    <contour>
      <point x="4644" y="315" type="curve" smooth="yes"/>
      <point x="4681" y="315" type="line"/>
      <point x="4681" y="375"/>
      <point x="4699" y="434"/>
      <point x="4726" y="434" type="curve"/>
      <point x="4761" y="434"/>
      <point x="4814" y="236"/>
      <point x="4839" y="37" type="curve"/>
      <point x="4868" y="99" type="line"/>
      <point x="4846" y="334"/>
      <point x="4818" y="510"/>
      <point x="4728" y="510" type="curve" smooth="yes"/>
      <point x="4679" y="510"/>
      <point x="4644" y="429"/>
    </contour>
    <contour>
      <point x="5384" y="-230" type="line"/>
      <point x="5638" y="-230" type="line"/>
      <point x="5638" y="-202" type="line"/>
      <point x="5624" y="-202"/>
      <point x="5612" y="-202"/>
      <point x="5595" y="-202" type="curve" smooth="yes"/>
      <point x="5551" y="-202"/>
      <point x="5520" y="-160"/>
      <point x="5520" y="-101" type="curve" smooth="yes"/>
      <point x="5520" y="18"/>
      <point x="5510" y="335"/>
      <point x="5510" y="396" type="curve" smooth="yes"/>
      <point x="5510" y="401"/>
      <point x="5516" y="435"/>
      <point x="5525" y="479" type="curve"/>
      <point x="5506" y="491"/>
      <point x="5471" y="500"/>
      <point x="5442" y="500" type="curve" smooth="yes"/>
      <point x="5293" y="500"/>
      <point x="5187" y="365"/>
      <point x="5187" y="175" type="curve" smooth="yes"/>
      <point x="5187" y="68"/>
      <point x="5217" y="-7"/>
      <point x="5259" y="-7" type="curve" smooth="yes"/>
      <point x="5329" y="-7"/>
      <point x="5418" y="58"/>
      <point x="5475" y="150" type="curve"/>
      <point x="5467" y="185" type="line"/>
      <point x="5432" y="126"/>
      <point x="5368" y="84"/>
      <point x="5313" y="84" type="curve" smooth="yes"/>
      <point x="5271" y="84"/>
      <point x="5241" y="137"/>
      <point x="5241" y="213" type="curve" smooth="yes"/>
      <point x="5241" y="335"/>
      <point x="5299" y="421"/>
      <point x="5382" y="421" type="curve" smooth="yes"/>
      <point x="5417" y="421"/>
      <point x="5441" y="377"/>
      <point x="5441" y="316" type="curve" smooth="yes"/>
      <point x="5441" y="259"/>
      <point x="5451" y="-98"/>
      <point x="5451" y="-124" type="curve" smooth="yes"/>
      <point x="5451" y="-170"/>
      <point x="5435" y="-202"/>
      <point x="5413" y="-202" type="curve" smooth="yes"/>
      <point x="5383" y="-202" type="line"/>
    </contour>
    <contour>
      <point x="17966" y="6518" type="line"/>
      <point x="17966" y="6688" type="line"/>
      <point x="19103" y="7316" type="line"/>
      <point x="18873" y="4590" type="line"/>
      <point x="18621" y="4590" type="line"/>
      <point x="18806" y="6916" type="line"/>
    </contour>
    <contour>
      <point x="20354" y="7304" type="curve"/>
      <point x="21342" y="7304"/>
      <point x="21342" y="6091"/>
      <point x="20708" y="6091" type="curve" smooth="yes"/>
      <point x="19340" y="6091"/>
      <point x="19340" y="5721"/>
      <point x="20708" y="5721" type="curve" smooth="yes"/>
      <point x="21342" y="5721"/>
      <point x="21342" y="4589"/>
      <point x="20354" y="4589" type="curve"/>
      <point x="19340" y="4589"/>
      <point x="19340" y="4747"/>
      <point x="19340" y="4789" type="curve"/>
      <point x="19340" y="4891"/>
      <point x="20354" y="4867"/>
      <point x="20354" y="5239" type="curve" smooth="yes"/>
      <point x="20354" y="5551"/>
      <point x="19340" y="5621"/>
      <point x="19340" y="5868" type="curve" smooth="yes"/>
      <point x="19340" y="6116"/>
      <point x="20354" y="6300"/>
      <point x="20354" y="6594" type="curve" smooth="yes"/>
      <point x="20354" y="6889"/>
      <point x="19340" y="6893"/>
      <point x="19340" y="7106" type="curve"/>
      <point x="19340" y="7233"/>
      <point x="19340" y="7304"/>
    </contour>
    <contour>
      <point x="5973" y="702" type="line"/>
      <point x="5968" y="702" type="line"/>
      <point x="5968" y="640"/>
      <point x="5968" y="105"/>
      <point x="5968" y="94" type="curve" smooth="yes"/>
      <point x="5968" y="77"/>
      <point x="5956" y="32"/>
      <point x="5927" y="32" type="curve" smooth="yes"/>
      <point x="5790" y="32" type="line"/>
      <point x="5790" y="4" type="line"/>
      <point x="6192" y="4" type="line"/>
      <point x="6192" y="28" type="line"/>
      <point x="6155" y="28"/>
      <point x="6113" y="28"/>
      <point x="6080" y="28" type="curve" smooth="yes"/>
      <point x="6047" y="28"/>
      <point x="6028" y="66"/>
      <point x="6028" y="108" type="curve" smooth="yes"/>
      <point x="6028" y="627" type="line"/>
    </contour>
    <contour>
      <point x="5821" y="702" type="line"/>
      <point x="5821" y="674" type="line"/>
      <point x="5925" y="674" type="line" smooth="yes"/>
      <point x="5952" y="674"/>
      <point x="5983" y="632"/>
      <point x="5998" y="609" type="curve" smooth="yes"/>
      <point x="6391" y="-1" type="line"/>
      <point x="6458" y="-1" type="line"/>
      <point x="6458" y="614" type="line" smooth="yes"/>
      <point x="6458" y="672"/>
      <point x="6513" y="672"/>
      <point x="6534" y="672" type="curve" smooth="yes"/>
      <point x="6555" y="672"/>
      <point x="6579" y="672"/>
      <point x="6602" y="672" type="curve"/>
      <point x="6602" y="700" type="line"/>
      <point x="6240" y="700" type="line"/>
      <point x="6240" y="672" type="line"/>
      <point x="6338" y="672" type="line" smooth="yes"/>
      <point x="6356" y="672"/>
      <point x="6398" y="647"/>
      <point x="6398" y="616" type="curve" smooth="yes"/>
      <point x="6398" y="585"/>
      <point x="6398" y="289"/>
      <point x="6398" y="119" type="curve"/>
      <point x="6422" y="101" type="line"/>
      <point x="6026" y="702" type="line"/>
    </contour>
    <contour>
      <point x="6785" y="-200" type="curve"/>
      <point x="6801" y="-223" type="line"/>
      <point x="6874" y="-162"/>
      <point x="6926" y="-73"/>
      <point x="6926" y="-9" type="curve" smooth="yes"/>
      <point x="6926" y="92"/>
      <point x="6878" y="164"/>
      <point x="6809" y="164" type="curve" smooth="yes"/>
      <point x="6772" y="164"/>
      <point x="6746" y="140"/>
      <point x="6746" y="105" type="curve" smooth="yes"/>
      <point x="6746" y="64"/>
      <point x="6768" y="35"/>
      <point x="6799" y="35" type="curve" smooth="yes"/>
      <point x="6847" y="35"/>
      <point x="6881" y="-5"/>
      <point x="6881" y="-61" type="curve" smooth="yes"/>
      <point x="6881" y="-93"/>
      <point x="6841" y="-151"/>
    </contour>
    <contour>
      <point x="8123" y="171" type="line"/>
      <point x="8123" y="111" type="line"/>
      <point x="8385" y="111" type="line"/>
      <point x="8411" y="160" type="line"/>
      <point x="8371" y="199" type="line"/>
      <point x="8252" y="200" type="line"/>
    </contour>
    <contour>
      <point x="7339" y="12" type="curve" smooth="yes"/>
      <point x="7380" y="12"/>
      <point x="7413" y="53"/>
      <point x="7413" y="103" type="curve" smooth="yes"/>
      <point x="7413" y="153"/>
      <point x="7380" y="194"/>
      <point x="7339" y="194" type="curve" smooth="yes"/>
      <point x="7298" y="194"/>
      <point x="7265" y="153"/>
      <point x="7265" y="103" type="curve" smooth="yes"/>
      <point x="7265" y="53"/>
      <point x="7298" y="12"/>
    </contour>
    <contour>
      <point x="7504" y="-130" type="curve"/>
      <point x="7511" y="-157" type="line"/>
      <point x="7601" y="-123"/>
      <point x="7669" y="-57"/>
      <point x="7691" y="3" type="curve" smooth="yes"/>
      <point x="7724" y="99"/>
      <point x="7703" y="182"/>
      <point x="7638" y="206" type="curve" smooth="yes"/>
      <point x="7603" y="218"/>
      <point x="7571" y="204"/>
      <point x="7559" y="171" type="curve" smooth="yes"/>
      <point x="7545" y="132"/>
      <point x="7556" y="98"/>
      <point x="7586" y="87" type="curve" smooth="yes"/>
      <point x="7631" y="71"/>
      <point x="7660" y="22"/>
      <point x="7641" y="-31" type="curve" smooth="yes"/>
      <point x="7630" y="-61"/>
      <point x="7573" y="-102"/>
    </contour>
    <contour>
      <point x="7595" y="348" type="curve"/>
      <point x="7632" y="340"/>
      <point x="7668" y="357"/>
      <point x="7674" y="387" type="curve" smooth="yes"/>
      <point x="7680" y="415"/>
      <point x="7653" y="445"/>
      <point x="7616" y="453" type="curve" smooth="yes"/>
      <point x="7578" y="461"/>
      <point x="7542" y="444"/>
      <point x="7536" y="415" type="curve" smooth="yes"/>
      <point x="7530" y="386"/>
      <point x="7556" y="356"/>
    </contour>
    <contour>
      <point x="7895" y="348" type="curve"/>
      <point x="7932" y="340"/>
      <point x="7968" y="357"/>
      <point x="7974" y="387" type="curve" smooth="yes"/>
      <point x="7980" y="415"/>
      <point x="7953" y="445"/>
      <point x="7916" y="453" type="curve" smooth="yes"/>
      <point x="7878" y="461"/>
      <point x="7842" y="444"/>
      <point x="7836" y="415" type="curve" smooth="yes"/>
      <point x="7830" y="386"/>
      <point x="7856" y="356"/>
    </contour>
    <contour>
      <point x="7885" y="8" type="curve"/>
      <point x="7922" y="0"/>
      <point x="7958" y="17"/>
      <point x="7964" y="47" type="curve" smooth="yes"/>
      <point x="7970" y="75"/>
      <point x="7943" y="105"/>
      <point x="7906" y="113" type="curve" smooth="yes"/>
      <point x="7868" y="121"/>
      <point x="7832" y="104"/>
      <point x="7826" y="75" type="curve" smooth="yes"/>
      <point x="7820" y="46"/>
      <point x="7846" y="16"/>
    </contour>
    <contour>
      <point x="9479" y="413" type="curve" smooth="yes"/>
      <point x="9516" y="413" type="line"/>
      <point x="9516" y="452"/>
      <point x="9623" y="677"/>
      <point x="9623" y="762" type="curve" smooth="yes"/>
      <point x="9623" y="850"/>
      <point x="9566" y="912"/>
      <point x="9485" y="912" type="curve" smooth="yes"/>
      <point x="9404" y="912"/>
      <point x="9347" y="852"/>
      <point x="9347" y="767" type="curve" smooth="yes"/>
      <point x="9347" y="700"/>
      <point x="9479" y="456"/>
    </contour>
    <contour>
      <point x="9507" y="486" type="curve" smooth="yes"/>
      <point x="9507" y="480"/>
      <point x="9494" y="486"/>
      <point x="9487" y="486" type="curve"/>
      <point x="9487" y="533"/>
      <point x="9403" y="711"/>
      <point x="9403" y="760" type="curve" smooth="yes"/>
      <point x="9403" y="835"/>
      <point x="9449" y="857"/>
      <point x="9480" y="857" type="curve" smooth="yes"/>
      <point x="9521" y="857"/>
      <point x="9568" y="836"/>
      <point x="9568" y="762" type="curve" smooth="yes"/>
      <point x="9568" y="690"/>
      <point x="9507" y="533"/>
    </contour>
    <contour>
      <point x="9604" y="380" type="curve" smooth="yes"/>
      <point x="9630" y="354" type="line"/>
      <point x="9658" y="382"/>
      <point x="9893" y="465"/>
      <point x="9953" y="525" type="curve"/>
      <point x="10015" y="588"/>
      <point x="10019" y="672"/>
      <point x="9961" y="729" type="curve" smooth="yes"/>
      <point x="9904" y="786"/>
      <point x="9821" y="784"/>
      <point x="9761" y="724" type="curve" smooth="yes"/>
      <point x="9714" y="677"/>
      <point x="9635" y="411"/>
    </contour>
    <contour>
      <point x="9676" y="412" type="curve" smooth="yes"/>
      <point x="9672" y="408"/>
      <point x="9667" y="421"/>
      <point x="9662" y="426" type="curve"/>
      <point x="9695" y="460"/>
      <point x="9761" y="645"/>
      <point x="9796" y="679" type="curve" smooth="yes"/>
      <point x="9849" y="732"/>
      <point x="9897" y="715"/>
      <point x="9919" y="694" type="curve" smooth="yes"/>
      <point x="9948" y="665"/>
      <point x="9966" y="616"/>
      <point x="9914" y="564" type="curve" smooth="yes"/>
      <point x="9863" y="513"/>
      <point x="9709" y="445"/>
    </contour>
    <contour>
      <point x="9664" y="261" type="curve" smooth="yes"/>
      <point x="9664" y="224" type="line"/>
      <point x="9703" y="224"/>
      <point x="9928" y="117"/>
      <point x="10013" y="117" type="curve" smooth="yes"/>
      <point x="10101" y="117"/>
      <point x="10163" y="174"/>
      <point x="10163" y="255" type="curve" smooth="yes"/>
      <point x="10163" y="336"/>
      <point x="10103" y="393"/>
      <point x="10018" y="393" type="curve" smooth="yes"/>
      <point x="9951" y="393"/>
      <point x="9707" y="261"/>
    </contour>
    <contour>
      <point x="9737" y="233" type="curve" smooth="yes"/>
      <point x="9731" y="233"/>
      <point x="9737" y="246"/>
      <point x="9737" y="253" type="curve"/>
      <point x="9784" y="253"/>
      <point x="9962" y="337"/>
      <point x="10011" y="337" type="curve" smooth="yes"/>
      <point x="10086" y="337"/>
      <point x="10108" y="291"/>
      <point x="10108" y="260" type="curve" smooth="yes"/>
      <point x="10108" y="219"/>
      <point x="10087" y="172"/>
      <point x="10013" y="172" type="curve" smooth="yes"/>
      <point x="9941" y="172"/>
      <point x="9784" y="233"/>
    </contour>
    <contour>
      <point x="9631" y="141" type="curve" smooth="yes"/>
      <point x="9605" y="115" type="line"/>
      <point x="9633" y="87"/>
      <point x="9716" y="-148"/>
      <point x="9776" y="-208" type="curve" smooth="yes"/>
      <point x="9839" y="-270"/>
      <point x="9923" y="-274"/>
      <point x="9980" y="-216" type="curve" smooth="yes"/>
      <point x="10037" y="-159"/>
      <point x="10035" y="-76"/>
      <point x="9975" y="-16" type="curve" smooth="yes"/>
      <point x="9928" y="31"/>
      <point x="9662" y="110"/>
    </contour>
    <contour>
      <point x="9663" y="69" type="curve" smooth="yes"/>
      <point x="9659" y="73"/>
      <point x="9672" y="78"/>
      <point x="9677" y="83" type="curve"/>
      <point x="9711" y="50"/>
      <point x="9896" y="-16"/>
      <point x="9930" y="-51" type="curve" smooth="yes"/>
      <point x="9983" y="-104"/>
      <point x="9966" y="-152"/>
      <point x="9945" y="-174" type="curve" smooth="yes"/>
      <point x="9916" y="-203"/>
      <point x="9867" y="-221"/>
      <point x="9815" y="-169" type="curve" smooth="yes"/>
      <point x="9764" y="-118"/>
      <point x="9696" y="36"/>
    </contour>
    <contour>
      <point x="9519" y="79" type="curve" smooth="yes"/>
      <point x="9482" y="79" type="line"/>
      <point x="9482" y="40"/>
      <point x="9375" y="-185"/>
      <point x="9375" y="-270" type="curve" smooth="yes"/>
      <point x="9375" y="-358"/>
      <point x="9432" y="-420"/>
      <point x="9513" y="-420" type="curve" smooth="yes"/>
      <point x="9594" y="-420"/>
      <point x="9651" y="-360"/>
      <point x="9651" y="-275" type="curve" smooth="yes"/>
      <point x="9651" y="-208"/>
      <point x="9519" y="36"/>
    </contour>
    <contour>
      <point x="9491" y="6" type="curve" smooth="yes"/>
      <point x="9491" y="12"/>
      <point x="9504" y="6"/>
      <point x="9511" y="6" type="curve"/>
      <point x="9511" y="-41"/>
      <point x="9595" y="-219"/>
      <point x="9595" y="-268" type="curve" smooth="yes"/>
      <point x="9595" y="-343"/>
      <point x="9549" y="-365"/>
      <point x="9518" y="-365" type="curve" smooth="yes"/>
      <point x="9477" y="-365"/>
      <point x="9430" y="-344"/>
      <point x="9430" y="-270" type="curve" smooth="yes"/>
      <point x="9430" y="-198"/>
      <point x="9491" y="-41"/>
    </contour>
    <contour>
      <point x="9394" y="112" type="curve" smooth="yes"/>
      <point x="9368" y="138" type="line"/>
      <point x="9340" y="110"/>
      <point x="9105" y="27"/>
      <point x="9045" y="-33" type="curve"/>
      <point x="8983" y="-96"/>
      <point x="8979" y="-180"/>
      <point x="9037" y="-237" type="curve" smooth="yes"/>
      <point x="9094" y="-294"/>
      <point x="9177" y="-292"/>
      <point x="9237" y="-232" type="curve" smooth="yes"/>
      <point x="9284" y="-185"/>
      <point x="9363" y="81"/>
    </contour>
    <contour>
      <point x="9322" y="80" type="curve" smooth="yes"/>
      <point x="9326" y="84"/>
      <point x="9331" y="71"/>
      <point x="9336" y="66" type="curve"/>
      <point x="9303" y="32"/>
      <point x="9237" y="-153"/>
      <point x="9202" y="-187" type="curve" smooth="yes"/>
      <point x="9149" y="-240"/>
      <point x="9101" y="-223"/>
      <point x="9079" y="-202" type="curve" smooth="yes"/>
      <point x="9050" y="-173"/>
      <point x="9032" y="-124"/>
      <point x="9084" y="-72" type="curve" smooth="yes"/>
      <point x="9135" y="-21"/>
      <point x="9289" y="47"/>
    </contour>
    <contour>
      <point x="9334" y="231" type="curve" smooth="yes"/>
      <point x="9334" y="268" type="line"/>
      <point x="9295" y="268"/>
      <point x="9070" y="375"/>
      <point x="8985" y="375" type="curve" smooth="yes"/>
      <point x="8897" y="375"/>
      <point x="8835" y="318"/>
      <point x="8835" y="237" type="curve" smooth="yes"/>
      <point x="8835" y="156"/>
      <point x="8895" y="99"/>
      <point x="8980" y="99" type="curve" smooth="yes"/>
      <point x="9047" y="99"/>
      <point x="9291" y="231"/>
    </contour>
    <contour>
      <point x="9261" y="259" type="curve" smooth="yes"/>
      <point x="9267" y="259"/>
      <point x="9261" y="246"/>
      <point x="9261" y="239" type="curve"/>
      <point x="9214" y="239"/>
      <point x="9036" y="155"/>
      <point x="8987" y="155" type="curve" smooth="yes"/>
      <point x="8912" y="155"/>
      <point x="8890" y="201"/>
      <point x="8890" y="232" type="curve" smooth="yes"/>
      <point x="8890" y="273"/>
      <point x="8911" y="320"/>
      <point x="8985" y="320" type="curve" smooth="yes"/>
      <point x="9057" y="320"/>
      <point x="9214" y="259"/>
    </contour>
    <contour>
      <point x="9367" y="351" type="curve" smooth="yes"/>
      <point x="9393" y="377" type="line"/>
      <point x="9365" y="405"/>
      <point x="9282" y="640"/>
      <point x="9222" y="700" type="curve" smooth="yes"/>
      <point x="9159" y="762"/>
      <point x="9075" y="766"/>
      <point x="9018" y="708" type="curve" smooth="yes"/>
      <point x="8961" y="651"/>
      <point x="8963" y="568"/>
      <point x="9023" y="508" type="curve" smooth="yes"/>
      <point x="9070" y="461"/>
      <point x="9336" y="382"/>
    </contour>
    <contour>
      <point x="9335" y="423" type="curve" smooth="yes"/>
      <point x="9339" y="419"/>
      <point x="9326" y="414"/>
      <point x="9321" y="409" type="curve"/>
      <point x="9287" y="442"/>
      <point x="9102" y="508"/>
      <point x="9068" y="543" type="curve" smooth="yes"/>
      <point x="9015" y="596"/>
      <point x="9032" y="644"/>
      <point x="9053" y="666" type="curve" smooth="yes"/>
      <point x="9082" y="695"/>
      <point x="9131" y="713"/>
      <point x="9183" y="661" type="curve" smooth="yes"/>
      <point x="9234" y="610"/>
      <point x="9302" y="456"/>
    </contour>
  </outline>
</glyph>
<glyph name="c_t" format="2">
  <advance width="639"/>
  <anchor x="230" y="435" name="top_1"/>
  <anchor x="557" y="435" name="top_2"/>
  <anchor x="98" y="0" name="bottom_1"/>
  <anchor x="425" y="0" name="bottom_2"/>
  <anchor x="327.5" y="0" name="caret_1"/>
  <outline>
    <contour>
      <point x="315" y="344" type="curve"/>
      <point x="325" y="354" type="line"/>
      <point x="300" y="355"/>
      <point x="146" y="580"/>
      <point x="301" y="580" type="curve" smooth="yes"/>
      <point x="367" y="580"/>
      <point x="360" y="526"/>
      <point x="426" y="526" type="curve" smooth="yes"/>
      <point x="460" y="526"/>
      <point x="534" y="576"/>
      <point x="552" y="580" type="curve"/>
      <point x="536" y="598" type="line"/>
      <point x="518" y="594"/>
      <point x="480" y="566"/>
      <point x="466" y="566" type="curve" smooth="yes"/>
      <point x="400" y="566"/>
      <point x="407" y="620"/>
      <point x="341" y="620" type="curve" smooth="yes"/>
      <point x="83" y="620"/>
      <point x="269" y="344"/>
    </contour>
    <component base="c"/>
    <component base="t" xOffset="381"/>
  </outline>
</glyph>
<glyph name="f_i" format="2">
  <advance width="494"/>
  <outline>
    <contour>
      <point x="-20" y="-208" type="curve" smooth="yes"/>
      <point x="45" y="-208"/>
      <point x="127" y="-63"/>
      <point x="164" y="142" type="curve" smooth="yes"/>
      <point x="229" y="507" type="line" smooth="yes"/>
      <point x="247" y="608"/>
      <point x="326" y="680"/>
      <point x="363" y="680" type="curve" smooth="yes"/>
      <point x="435" y="680"/>
      <point x="426" y="639"/>
      <point x="411" y="581" type="curve" smooth="yes"/>
      <point x="407" y="568"/>
      <point x="411" y="558"/>
      <point x="421" y="558" type="curve" smooth="yes"/>
      <point x="454" y="558"/>
      <point x="503" y="578"/>
      <point x="510" y="606" type="curve" smooth="yes"/>
      <point x="524" y="663"/>
      <point x="486" y="703"/>
      <point x="378" y="703" type="curve" smooth="yes"/>
      <point x="289" y="703"/>
      <point x="170" y="616"/>
      <point x="148" y="493" type="curve" smooth="yes"/>
      <point x="83" y="128" type="line" smooth="yes"/>
      <point x="49" y="-58"/>
      <point x="6" y="-185"/>
      <point x="-5" y="-185" type="curve" smooth="yes"/>
      <point x="-37" y="-185"/>
      <point x="-48" y="-144"/>
      <point x="-33" y="-86" type="curve" smooth="yes"/>
      <point x="-29" y="-73"/>
      <point x="-33" y="-63"/>
      <point x="-43" y="-63" type="curve" smooth="yes"/>
      <point x="-76" y="-63"/>
      <point x="-105" y="-83"/>
      <point x="-112" y="-111" type="curve" smooth="yes"/>
      <point x="-126" y="-168"/>
      <point x="-88" y="-208"/>
    </contour>
    <contour>
      <point x="59" y="408" type="line"/>
      <point x="323" y="408" type="line"/>
      <point x="336" y="450" type="line"/>
      <point x="72" y="450" type="line"/>
    </contour>
    <contour>
      <point x="314" y="-8" type="curve" smooth="yes"/>
      <point x="374" y="-8"/>
      <point x="454" y="86"/>
      <point x="507" y="218" type="curve"/>
      <point x="477" y="218" type="line"/>
      <point x="440" y="127"/>
      <point x="397" y="62"/>
      <point x="373" y="62" type="curve" smooth="yes"/>
      <point x="354" y="62"/>
      <point x="360" y="113"/>
      <point x="387" y="185" type="curve" smooth="yes"/>
      <point x="455" y="369" type="line" smooth="yes"/>
      <point x="473" y="419"/>
      <point x="464" y="451"/>
      <point x="428" y="451" type="curve"/>
      <point x="336" y="450" type="line"/>
      <point x="322" y="408" type="line"/>
      <point x="339" y="408"/>
      <point x="352" y="409"/>
      <point x="374" y="409" type="curve" smooth="yes"/>
      <point x="385" y="409"/>
      <point x="373" y="359"/>
      <point x="347" y="286" type="curve" smooth="yes"/>
      <point x="296" y="143" type="line" smooth="yes"/>
      <point x="265" y="56"/>
      <point x="270" y="-8"/>
    </contour>
  </outline>
</glyph>
<glyph name="s.hist" format="2">
  <advance width="238"/>
  <outline>
    <contour>
      <point x="-83" y="-208" type="curve" smooth="yes"/>
      <point x="5" y="-208"/>
      <point x="82" y="-60"/>
      <point x="130" y="149" type="curve" smooth="yes"/>
      <point x="213" y="507" type="line" smooth="yes"/>
      <point x="237" y="608"/>
      <point x="280" y="680"/>
      <point x="316" y="680" type="curve" smooth="yes"/>
      <point x="347" y="680"/>
      <point x="357" y="639"/>
      <point x="340" y="581" type="curve" smooth="yes"/>
      <point x="335" y="568"/>
      <point x="339" y="558"/>
      <point x="349" y="558" type="curve" smooth="yes"/>
      <point x="383" y="558"/>
      <point x="412" y="578"/>
      <point x="420" y="606" type="curve" smooth="yes"/>
      <point x="437" y="663"/>
      <point x="401" y="703"/>
      <point x="333" y="703" type="curve" smooth="yes"/>
      <point x="244" y="703"/>
      <point x="161" y="616"/>
      <point x="132" y="493" type="curve" smooth="yes"/>
      <point x="49" y="132" type="line" smooth="yes"/>
      <point x="6" y="-54"/>
      <point x="-30" y="-185"/>
      <point x="-66" y="-185" type="curve" smooth="yes"/>
      <point x="-97" y="-185"/>
      <point x="-107" y="-144"/>
      <point x="-90" y="-86" type="curve" smooth="yes"/>
      <point x="-85" y="-73"/>
      <point x="-89" y="-63"/>
      <point x="-99" y="-63" type="curve" smooth="yes"/>
      <point x="-133" y="-63"/>
      <point x="-162" y="-83"/>
      <point x="-170" y="-111" type="curve" smooth="yes"/>
      <point x="-187" y="-168"/>
      <point x="-151" y="-208"/>
    </contour>
  </outline>
</glyph>
<glyph name="s_t" format="2">
  <advance width="645"/>
  <outline>
    <contour>
      <point x="295" y="344" type="curve"/>
      <point x="305" y="354" type="line"/>
      <point x="280" y="355"/>
      <point x="106" y="580"/>
      <point x="301" y="580" type="curve" smooth="yes"/>
      <point x="367" y="580"/>
      <point x="365" y="526"/>
      <point x="431" y="526" type="curve" smooth="yes"/>
      <point x="465" y="526"/>
      <point x="539" y="577"/>
      <point x="557" y="581" type="curve"/>
      <point x="541" y="599" type="line"/>
      <point x="523" y="595"/>
      <point x="485" y="566"/>
      <point x="471" y="566" type="curve" smooth="yes"/>
      <point x="405" y="566"/>
      <point x="407" y="620"/>
      <point x="341" y="620" type="curve" smooth="yes"/>
      <point x="43" y="620"/>
      <point x="249" y="344"/>
    </contour>
    <component base="s"/>
    <component base="t" xOffset="387"/>
  </outline>
</glyph>
